<?xml version="1.0" encoding="UTF-8" standalone="no"?>
<!DOCTYPE svg PUBLIC "-//W3C//DTD SVG 1.1//EN"
 "http://www.w3.org/Graphics/SVG/1.1/DTD/svg11.dtd">
<!-- Generated by graphviz version 2.50.0 (20240430.0900)
 -->
<!-- Title: snakemake_dag Pages: 1 -->
<svg width="1696pt" height="188pt"
 viewBox="0.00 0.00 1696.00 188.00" xmlns="http://www.w3.org/2000/svg" xmlns:xlink="http://www.w3.org/1999/xlink">
<g id="graph0" class="graph" transform="scale(1 1) rotate(0) translate(4 184)">
<title>snakemake_dag</title>
<polygon fill="white" stroke="transparent" points="-4,4 -4,-184 1692,-184 1692,4 -4,4"/>
<!-- 0 -->
<g id="node1" class="node">
<title>0</title>
<path fill="none" stroke="#d85656" stroke-width="2" d="M861.5,-36C861.5,-36 831.5,-36 831.5,-36 825.5,-36 819.5,-30 819.5,-24 819.5,-24 819.5,-12 819.5,-12 819.5,-6 825.5,0 831.5,0 831.5,0 861.5,0 861.5,0 867.5,0 873.5,-6 873.5,-12 873.5,-12 873.5,-24 873.5,-24 873.5,-30 867.5,-36 861.5,-36"/>
<text text-anchor="middle" x="846.5" y="-15.5" font-family="sans" font-size="10.00">all</text>
</g>
<!-- 1 -->
<g id="node2" class="node">
<title>1</title>
<path fill="none" stroke="#56a9d8" stroke-width="2" d="M398,-108C398,-108 323,-108 323,-108 317,-108 311,-102 311,-96 311,-96 311,-84 311,-84 311,-78 317,-72 323,-72 323,-72 398,-72 398,-72 404,-72 410,-78 410,-84 410,-84 410,-96 410,-96 410,-102 404,-108 398,-108"/>
<text text-anchor="middle" x="360.5" y="-87.5" font-family="sans" font-size="10.00">ingest_metadata</text>
</g>
<!-- 1&#45;&gt;0 -->
<g id="edge1" class="edge">
<title>1&#45;&gt;0</title>
<path fill="none" stroke="grey" stroke-width="2" d="M410.04,-73.91C412.89,-73.22 415.73,-72.57 418.5,-72 561.06,-42.48 733.97,-27.23 808.88,-21.6"/>
<polygon fill="grey" stroke="grey" stroke-width="2" points="809.49,-25.06 819.21,-20.84 808.98,-18.08 809.49,-25.06"/>
</g>
<!-- 2 -->
<g id="node3" class="node">
<title>2</title>
<path fill="none" stroke="#59d856" stroke-width="2" d="M505,-108C505,-108 440,-108 440,-108 434,-108 428,-102 428,-96 428,-96 428,-84 428,-84 428,-78 434,-72 440,-72 440,-72 505,-72 505,-72 511,-72 517,-78 517,-84 517,-84 517,-96 517,-96 517,-102 511,-108 505,-108"/>
<text text-anchor="middle" x="472.5" y="-87.5" font-family="sans" font-size="10.00">ingest_dataset</text>
</g>
<!-- 2&#45;&gt;0 -->
<g id="edge2" class="edge">
<title>2&#45;&gt;0</title>
<path fill="none" stroke="grey" stroke-width="2" d="M517.19,-74.16C519.99,-73.39 522.78,-72.66 525.5,-72 626.76,-47.54 748.72,-30.82 809,-23.38"/>
<polygon fill="grey" stroke="grey" stroke-width="2" points="809.67,-26.82 819.17,-22.14 808.82,-19.87 809.67,-26.82"/>
</g>
<!-- 3 -->
<g id="node4" class="node">
<title>3</title>
<path fill="none" stroke="#56d8a9" stroke-width="2" d="M179,-180C179,-180 12,-180 12,-180 6,-180 0,-174 0,-168 0,-168 0,-156 0,-156 0,-150 6,-144 12,-144 12,-144 179,-144 179,-144 185,-144 191,-150 191,-156 191,-156 191,-168 191,-168 191,-174 185,-180 179,-180"/>
<text text-anchor="middle" x="95.5" y="-165" font-family="sans" font-size="10.00">harmonize_sumstats</text>
<text text-anchor="middle" x="95.5" y="-154" font-family="sans" font-size="10.00">dataid: ukb&#45;d&#45;XIII_MUSCULOSKELET</text>
</g>
<!-- 3&#45;&gt;2 -->
<g id="edge11" class="edge">
<title>3&#45;&gt;2</title>
<path fill="none" stroke="grey" stroke-width="2" d="M191.42,-145.3C273.92,-131.79 383.93,-113.77 418.03,-107.54"/>
<polygon fill="grey" stroke="grey" stroke-width="2" points="418.72,-110.97 427.85,-105.6 417.36,-104.1 418.72,-110.97"/>
</g>
<!-- 4 -->
<g id="node5" class="node">
<title>4</title>
<path fill="none" stroke="#59d856" stroke-width="2" d="M612,-108C612,-108 547,-108 547,-108 541,-108 535,-102 535,-96 535,-96 535,-84 535,-84 535,-78 541,-72 547,-72 547,-72 612,-72 612,-72 618,-72 624,-78 624,-84 624,-84 624,-96 624,-96 624,-102 618,-108 612,-108"/>
<text text-anchor="middle" x="579.5" y="-87.5" font-family="sans" font-size="10.00">ingest_dataset</text>
</g>
<!-- 4&#45;&gt;0 -->
<g id="edge3" class="edge">
<title>4&#45;&gt;0</title>
<path fill="none" stroke="grey" stroke-width="2" d="M624.23,-74.69C627.36,-73.76 630.47,-72.85 633.5,-72 694.83,-54.73 766.92,-37.41 809.54,-27.47"/>
<polygon fill="grey" stroke="grey" stroke-width="2" points="810.51,-30.84 819.46,-25.17 808.93,-24.02 810.51,-30.84"/>
</g>
<!-- 5 -->
<g id="node6" class="node">
<title>5</title>
<path fill="none" stroke="#56d8a9" stroke-width="2" d="M382,-180C382,-180 221,-180 221,-180 215,-180 209,-174 209,-168 209,-168 209,-156 209,-156 209,-150 215,-144 221,-144 221,-144 382,-144 382,-144 388,-144 394,-150 394,-156 394,-156 394,-168 394,-168 394,-174 388,-180 382,-180"/>
<text text-anchor="middle" x="301.5" y="-165" font-family="sans" font-size="10.00">harmonize_sumstats</text>
<text text-anchor="middle" x="301.5" y="-154" font-family="sans" font-size="10.00">dataid: ukb&#45;d&#45;XII_SKIN_SUBCUTAN</text>
</g>
<!-- 5&#45;&gt;4 -->
<g id="edge12" class="edge">
<title>5&#45;&gt;4</title>
<path fill="none" stroke="grey" stroke-width="2" d="M379.6,-143.98C420.36,-134.76 471.2,-122.72 525.05,-108.03"/>
<polygon fill="grey" stroke="grey" stroke-width="2" points="526.07,-111.38 534.79,-105.35 524.22,-104.63 526.07,-111.38"/>
</g>
<!-- 6 -->
<g id="node7" class="node">
<title>6</title>
<path fill="none" stroke="#59d856" stroke-width="2" d="M719,-108C719,-108 654,-108 654,-108 648,-108 642,-102 642,-96 642,-96 642,-84 642,-84 642,-78 648,-72 654,-72 654,-72 719,-72 719,-72 725,-72 731,-78 731,-84 731,-84 731,-96 731,-96 731,-102 725,-108 719,-108"/>
<text text-anchor="middle" x="686.5" y="-87.5" font-family="sans" font-size="10.00">ingest_dataset</text>
</g>
<!-- 6&#45;&gt;0 -->
<g id="edge4" class="edge">
<title>6&#45;&gt;0</title>
<path fill="none" stroke="grey" stroke-width="2" d="M725.64,-71.88C751.4,-60.61 784.88,-45.96 810.07,-34.94"/>
<polygon fill="grey" stroke="grey" stroke-width="2" points="811.53,-38.12 819.29,-30.9 808.72,-31.71 811.53,-38.12"/>
</g>
<!-- 7 -->
<g id="node8" class="node">
<title>7</title>
<path fill="none" stroke="#56d8a9" stroke-width="2" d="M551,-180C551,-180 424,-180 424,-180 418,-180 412,-174 412,-168 412,-168 412,-156 412,-156 412,-150 418,-144 424,-144 424,-144 551,-144 551,-144 557,-144 563,-150 563,-156 563,-156 563,-168 563,-168 563,-174 557,-180 551,-180"/>
<text text-anchor="middle" x="487.5" y="-165" font-family="sans" font-size="10.00">harmonize_sumstats</text>
<text text-anchor="middle" x="487.5" y="-154" font-family="sans" font-size="10.00">dataid: ukb&#45;d&#45;XI_DIGESTIVE</text>
</g>
<!-- 7&#45;&gt;6 -->
<g id="edge13" class="edge">
<title>7&#45;&gt;6</title>
<path fill="none" stroke="grey" stroke-width="2" d="M535.93,-143.97C565.1,-133.7 602.3,-120.62 632.43,-110.02"/>
<polygon fill="grey" stroke="grey" stroke-width="2" points="633.68,-113.29 641.95,-106.67 631.35,-106.69 633.68,-113.29"/>
</g>
<!-- 8 -->
<g id="node9" class="node">
<title>8</title>
<path fill="none" stroke="#59d856" stroke-width="2" d="M826,-108C826,-108 761,-108 761,-108 755,-108 749,-102 749,-96 749,-96 749,-84 749,-84 749,-78 755,-72 761,-72 761,-72 826,-72 826,-72 832,-72 838,-78 838,-84 838,-84 838,-96 838,-96 838,-102 832,-108 826,-108"/>
<text text-anchor="middle" x="793.5" y="-87.5" font-family="sans" font-size="10.00">ingest_dataset</text>
</g>
<!-- 8&#45;&gt;0 -->
<g id="edge5" class="edge">
<title>8&#45;&gt;0</title>
<path fill="none" stroke="grey" stroke-width="2" d="M806.6,-71.7C812.89,-63.39 820.55,-53.28 827.46,-44.14"/>
<polygon fill="grey" stroke="grey" stroke-width="2" points="830.3,-46.19 833.55,-36.1 824.72,-41.96 830.3,-46.19"/>
</g>
<!-- 9 -->
<g id="node10" class="node">
<title>9</title>
<path fill="none" stroke="#56d8a9" stroke-width="2" d="M754,-180C754,-180 593,-180 593,-180 587,-180 581,-174 581,-168 581,-168 581,-156 581,-156 581,-150 587,-144 593,-144 593,-144 754,-144 754,-144 760,-144 766,-150 766,-156 766,-156 766,-168 766,-168 766,-174 760,-180 754,-180"/>
<text text-anchor="middle" x="673.5" y="-165" font-family="sans" font-size="10.00">harmonize_sumstats</text>
<text text-anchor="middle" x="673.5" y="-154" font-family="sans" font-size="10.00">dataid: ukb&#45;d&#45;XVIII_MISCFINDINGS</text>
</g>
<!-- 9&#45;&gt;8 -->
<g id="edge14" class="edge">
<title>9&#45;&gt;8</title>
<path fill="none" stroke="grey" stroke-width="2" d="M702.86,-143.88C718.55,-134.72 738.06,-123.34 754.95,-113.48"/>
<polygon fill="grey" stroke="grey" stroke-width="2" points="757.16,-116.25 764.03,-108.19 753.63,-110.21 757.16,-116.25"/>
</g>
<!-- 10 -->
<g id="node11" class="node">
<title>10</title>
<path fill="none" stroke="#59d856" stroke-width="2" d="M933,-108C933,-108 868,-108 868,-108 862,-108 856,-102 856,-96 856,-96 856,-84 856,-84 856,-78 862,-72 868,-72 868,-72 933,-72 933,-72 939,-72 945,-78 945,-84 945,-84 945,-96 945,-96 945,-102 939,-108 933,-108"/>
<text text-anchor="middle" x="900.5" y="-87.5" font-family="sans" font-size="10.00">ingest_dataset</text>
</g>
<!-- 10&#45;&gt;0 -->
<g id="edge6" class="edge">
<title>10&#45;&gt;0</title>
<path fill="none" stroke="grey" stroke-width="2" d="M887.15,-71.7C880.74,-63.39 872.94,-53.28 865.89,-44.14"/>
<polygon fill="grey" stroke="grey" stroke-width="2" points="868.57,-41.88 859.69,-36.1 863.03,-46.16 868.57,-41.88"/>
</g>
<!-- 11 -->
<g id="node12" class="node">
<title>11</title>
<path fill="none" stroke="#56d8a9" stroke-width="2" d="M1005,-180C1005,-180 796,-180 796,-180 790,-180 784,-174 784,-168 784,-168 784,-156 784,-156 784,-150 790,-144 796,-144 796,-144 1005,-144 1005,-144 1011,-144 1017,-150 1017,-156 1017,-156 1017,-168 1017,-168 1017,-174 1011,-180 1005,-180"/>
<text text-anchor="middle" x="900.5" y="-165" font-family="sans" font-size="10.00">harmonize_sumstats</text>
<text text-anchor="middle" x="900.5" y="-154" font-family="sans" font-size="10.00">dataid: ukb&#45;d&#45;XVII_MALFORMAT_ABNORMAL</text>
</g>
<!-- 11&#45;&gt;10 -->
<g id="edge15" class="edge">
<title>11&#45;&gt;10</title>
<path fill="none" stroke="grey" stroke-width="2" d="M900.5,-143.7C900.5,-135.98 900.5,-126.71 900.5,-118.11"/>
<polygon fill="grey" stroke="grey" stroke-width="2" points="904,-118.1 900.5,-108.1 897,-118.1 904,-118.1"/>
</g>
<!-- 12 -->
<g id="node13" class="node">
<title>12</title>
<path fill="none" stroke="#59d856" stroke-width="2" d="M1103,-108C1103,-108 1038,-108 1038,-108 1032,-108 1026,-102 1026,-96 1026,-96 1026,-84 1026,-84 1026,-78 1032,-72 1038,-72 1038,-72 1103,-72 1103,-72 1109,-72 1115,-78 1115,-84 1115,-84 1115,-96 1115,-96 1115,-102 1109,-108 1103,-108"/>
<text text-anchor="middle" x="1070.5" y="-87.5" font-family="sans" font-size="10.00">ingest_dataset</text>
</g>
<!-- 12&#45;&gt;0 -->
<g id="edge7" class="edge">
<title>12&#45;&gt;0</title>
<path fill="none" stroke="grey" stroke-width="2" d="M1025.98,-75.09C984.19,-62.03 922.43,-42.73 883.35,-30.51"/>
<polygon fill="grey" stroke="grey" stroke-width="2" points="884.27,-27.14 873.68,-27.49 882.18,-33.82 884.27,-27.14"/>
</g>
<!-- 13 -->
<g id="node14" class="node">
<title>13</title>
<path fill="none" stroke="#56d8a9" stroke-width="2" d="M1221.5,-180C1221.5,-180 1047.5,-180 1047.5,-180 1041.5,-180 1035.5,-174 1035.5,-168 1035.5,-168 1035.5,-156 1035.5,-156 1035.5,-150 1041.5,-144 1047.5,-144 1047.5,-144 1221.5,-144 1221.5,-144 1227.5,-144 1233.5,-150 1233.5,-156 1233.5,-156 1233.5,-168 1233.5,-168 1233.5,-174 1227.5,-180 1221.5,-180"/>
<text text-anchor="middle" x="1134.5" y="-165" font-family="sans" font-size="10.00">harmonize_sumstats</text>
<text text-anchor="middle" x="1134.5" y="-154" font-family="sans" font-size="10.00">dataid: ukb&#45;d&#45;XV_PREGNANCY_BIRTH</text>
</g>
<!-- 13&#45;&gt;12 -->
<g id="edge16" class="edge">
<title>13&#45;&gt;12</title>
<path fill="none" stroke="grey" stroke-width="2" d="M1118.68,-143.7C1110.93,-135.22 1101.46,-124.86 1092.98,-115.58"/>
<polygon fill="grey" stroke="grey" stroke-width="2" points="1095.47,-113.12 1086.14,-108.1 1090.3,-117.85 1095.47,-113.12"/>
</g>
<!-- 14 -->
<g id="node15" class="node">
<title>14</title>
<path fill="none" stroke="#59d856" stroke-width="2" d="M1287,-108C1287,-108 1222,-108 1222,-108 1216,-108 1210,-102 1210,-96 1210,-96 1210,-84 1210,-84 1210,-78 1216,-72 1222,-72 1222,-72 1287,-72 1287,-72 1293,-72 1299,-78 1299,-84 1299,-84 1299,-96 1299,-96 1299,-102 1293,-108 1287,-108"/>
<text text-anchor="middle" x="1254.5" y="-87.5" font-family="sans" font-size="10.00">ingest_dataset</text>
</g>
<!-- 14&#45;&gt;0 -->
<g id="edge8" class="edge">
<title>14&#45;&gt;0</title>
<path fill="none" stroke="grey" stroke-width="2" d="M1209.67,-81.31C1128.51,-67.38 958.7,-38.25 883.59,-25.36"/>
<polygon fill="grey" stroke="grey" stroke-width="2" points="884.09,-21.9 873.64,-23.66 882.9,-28.8 884.09,-21.9"/>
</g>
<!-- 15 -->
<g id="node16" class="node">
<title>15</title>
<path fill="none" stroke="#56d8a9" stroke-width="2" d="M1401.5,-180C1401.5,-180 1263.5,-180 1263.5,-180 1257.5,-180 1251.5,-174 1251.5,-168 1251.5,-168 1251.5,-156 1251.5,-156 1251.5,-150 1257.5,-144 1263.5,-144 1263.5,-144 1401.5,-144 1401.5,-144 1407.5,-144 1413.5,-150 1413.5,-156 1413.5,-156 1413.5,-168 1413.5,-168 1413.5,-174 1407.5,-180 1401.5,-180"/>
<text text-anchor="middle" x="1332.5" y="-165" font-family="sans" font-size="10.00">harmonize_sumstats</text>
<text text-anchor="middle" x="1332.5" y="-154" font-family="sans" font-size="10.00">dataid: ukb&#45;d&#45;X_RESPIRATORY</text>
</g>
<!-- 15&#45;&gt;14 -->
<g id="edge17" class="edge">
<title>15&#45;&gt;14</title>
<path fill="none" stroke="grey" stroke-width="2" d="M1313.22,-143.7C1303.58,-135.05 1291.77,-124.45 1281.27,-115.03"/>
<polygon fill="grey" stroke="grey" stroke-width="2" points="1283.34,-112.18 1273.56,-108.1 1278.66,-117.39 1283.34,-112.18"/>
</g>
<!-- 16 -->
<g id="node17" class="node">
<title>16</title>
<path fill="none" stroke="#59d856" stroke-width="2" d="M1459,-108C1459,-108 1394,-108 1394,-108 1388,-108 1382,-102 1382,-96 1382,-96 1382,-84 1382,-84 1382,-78 1388,-72 1394,-72 1394,-72 1459,-72 1459,-72 1465,-72 1471,-78 1471,-84 1471,-84 1471,-96 1471,-96 1471,-102 1465,-108 1459,-108"/>
<text text-anchor="middle" x="1426.5" y="-87.5" font-family="sans" font-size="10.00">ingest_dataset</text>
</g>
<!-- 16&#45;&gt;0 -->
<g id="edge9" class="edge">
<title>16&#45;&gt;0</title>
<path fill="none" stroke="grey" stroke-width="2" d="M1382,-82.28C1359.91,-79.02 1332.82,-75.15 1308.5,-72 1150.97,-51.62 962.69,-31.26 883.98,-22.93"/>
<polygon fill="grey" stroke="grey" stroke-width="2" points="883.92,-19.4 873.61,-21.83 883.19,-26.36 883.92,-19.4"/>
</g>
<!-- 17 -->
<g id="node18" class="node">
<title>17</title>
<path fill="none" stroke="#56d8a9" stroke-width="2" d="M1539,-180C1539,-180 1444,-180 1444,-180 1438,-180 1432,-174 1432,-168 1432,-168 1432,-156 1432,-156 1432,-150 1438,-144 1444,-144 1444,-144 1539,-144 1539,-144 1545,-144 1551,-150 1551,-156 1551,-156 1551,-168 1551,-168 1551,-174 1545,-180 1539,-180"/>
<text text-anchor="middle" x="1491.5" y="-165" font-family="sans" font-size="10.00">harmonize_sumstats</text>
<text text-anchor="middle" x="1491.5" y="-154" font-family="sans" font-size="10.00">dataid: ukb&#45;d&#45;Z01</text>
</g>
<!-- 17&#45;&gt;16 -->
<g id="edge18" class="edge">
<title>17&#45;&gt;16</title>
<path fill="none" stroke="grey" stroke-width="2" d="M1475.43,-143.7C1467.56,-135.22 1457.94,-124.86 1449.33,-115.58"/>
<polygon fill="grey" stroke="grey" stroke-width="2" points="1451.75,-113.05 1442.38,-108.1 1446.62,-117.81 1451.75,-113.05"/>
</g>
<!-- 18 -->
<g id="node19" class="node">
<title>18</title>
<path fill="none" stroke="#59d856" stroke-width="2" d="M1613,-108C1613,-108 1548,-108 1548,-108 1542,-108 1536,-102 1536,-96 1536,-96 1536,-84 1536,-84 1536,-78 1542,-72 1548,-72 1548,-72 1613,-72 1613,-72 1619,-72 1625,-78 1625,-84 1625,-84 1625,-96 1625,-96 1625,-102 1619,-108 1613,-108"/>
<text text-anchor="middle" x="1580.5" y="-87.5" font-family="sans" font-size="10.00">ingest_dataset</text>
</g>
<!-- 18&#45;&gt;0 -->
<g id="edge10" class="edge">
<title>18&#45;&gt;0</title>
<path fill="none" stroke="grey" stroke-width="2" d="M1535.82,-80.57C1518.58,-77.54 1498.67,-74.3 1480.5,-72 1254.77,-43.43 981.81,-26.52 883.78,-21.01"/>
<polygon fill="grey" stroke="grey" stroke-width="2" points="883.95,-17.51 873.78,-20.45 883.57,-24.5 883.95,-17.51"/>
</g>
<!-- 19 -->
<g id="node20" class="node">
<title>19</title>
<path fill="none" stroke="#56d8a9" stroke-width="2" d="M1676,-180C1676,-180 1581,-180 1581,-180 1575,-180 1569,-174 1569,-168 1569,-168 1569,-156 1569,-156 1569,-150 1575,-144 1581,-144 1581,-144 1676,-144 1676,-144 1682,-144 1688,-150 1688,-156 1688,-156 1688,-168 1688,-168 1688,-174 1682,-180 1676,-180"/>
<text text-anchor="middle" x="1628.5" y="-165" font-family="sans" font-size="10.00">harmonize_sumstats</text>
<text text-anchor="middle" x="1628.5" y="-154" font-family="sans" font-size="10.00">dataid: ukb&#45;d&#45;Z42</text>
</g>
<!-- 19&#45;&gt;18 -->
<g id="edge19" class="edge">
<title>19&#45;&gt;18</title>
<path fill="none" stroke="grey" stroke-width="2" d="M1616.63,-143.7C1611,-135.47 1604.15,-125.48 1597.93,-116.42"/>
<polygon fill="grey" stroke="grey" stroke-width="2" points="1600.77,-114.37 1592.23,-108.1 1595,-118.33 1600.77,-114.37"/>
</g>
</g>
</svg>
