<?xml version="1.0" encoding="UTF-8" standalone="no"?>
<!DOCTYPE svg PUBLIC "-//W3C//DTD SVG 1.1//EN"
 "http://www.w3.org/Graphics/SVG/1.1/DTD/svg11.dtd">
<!-- Generated by graphviz version 12.2.0 (20241103.1931)
 -->
<!-- Title: snakemake_dag Pages: 1 -->
<svg width="312pt" height="404pt"
 viewBox="0.00 0.00 311.75 404.00" xmlns="http://www.w3.org/2000/svg" xmlns:xlink="http://www.w3.org/1999/xlink">
<g id="graph0" class="graph" transform="scale(1 1) rotate(0) translate(4 400)">
<title>snakemake_dag</title>
<polygon fill="white" stroke="none" points="-4,4 -4,-400 307.75,-400 307.75,4 -4,4"/>
<!-- 0 -->
<g id="node1" class="node">
<title>0</title>
<path fill="none" stroke="#d85656" stroke-width="2" d="M166.88,-36C166.88,-36 136.88,-36 136.88,-36 130.88,-36 124.88,-30 124.88,-24 124.88,-24 124.88,-12 124.88,-12 124.88,-6 130.88,0 136.88,0 136.88,0 166.88,0 166.88,0 172.88,0 178.88,-6 178.88,-12 178.88,-12 178.88,-24 178.88,-24 178.88,-30 172.88,-36 166.88,-36"/>
<text text-anchor="middle" x="151.88" y="-14.12" font-family="sans" font-size="10.00">all</text>
</g>
<!-- 1 -->
<g id="node2" class="node">
<title>1</title>
<path fill="none" stroke="#c6d856" stroke-width="2" d="M183.88,-108C183.88,-108 119.88,-108 119.88,-108 113.88,-108 107.88,-102 107.88,-96 107.88,-96 107.88,-84 107.88,-84 107.88,-78 113.88,-72 119.88,-72 119.88,-72 183.88,-72 183.88,-72 189.88,-72 195.88,-78 195.88,-84 195.88,-84 195.88,-96 195.88,-96 195.88,-102 189.88,-108 183.88,-108"/>
<text text-anchor="middle" x="151.88" y="-86.12" font-family="sans" font-size="10.00">ingest_metadata</text>
</g>
<!-- 1&#45;&gt;0 -->
<g id="edge1" class="edge">
<title>1&#45;&gt;0</title>
<path fill="none" stroke="grey" stroke-width="2" d="M151.88,-71.34C151.88,-64.75 151.88,-57.08 151.88,-49.67"/>
<polygon fill="grey" stroke="grey" stroke-width="2" points="155.38,-49.93 151.88,-39.93 148.38,-49.93 155.38,-49.93"/>
</g>
<!-- 2 -->
<g id="node3" class="node">
<title>2</title>
<path fill="none" stroke="#78d856" stroke-width="2" d="M194.38,-180C194.38,-180 109.38,-180 109.38,-180 103.38,-180 97.38,-174 97.38,-168 97.38,-168 97.38,-156 97.38,-156 97.38,-150 103.38,-144 109.38,-144 109.38,-144 194.38,-144 194.38,-144 200.38,-144 206.38,-150 206.38,-156 206.38,-156 206.38,-168 206.38,-168 206.38,-174 200.38,-180 194.38,-180"/>
<text text-anchor="middle" x="151.88" y="-158.12" font-family="sans" font-size="10.00">aggregate_checksum</text>
</g>
<!-- 2&#45;&gt;1 -->
<g id="edge4" class="edge">
<title>2&#45;&gt;1</title>
<path fill="none" stroke="grey" stroke-width="2" d="M151.88,-143.34C151.88,-136.75 151.88,-129.08 151.88,-121.67"/>
<polygon fill="grey" stroke="grey" stroke-width="2" points="155.38,-121.93 151.88,-111.93 148.38,-121.93 155.38,-121.93"/>
</g>
<!-- 3 -->
<g id="node4" class="node">
<title>3</title>
<path fill="none" stroke="#56a2d8" stroke-width="2" d="M117.38,-252C117.38,-252 80.38,-252 80.38,-252 74.38,-252 68.38,-246 68.38,-240 68.38,-240 68.38,-228 68.38,-228 68.38,-222 74.38,-216 80.38,-216 80.38,-216 117.38,-216 117.38,-216 123.38,-216 129.38,-222 129.38,-228 129.38,-228 129.38,-240 129.38,-240 129.38,-246 123.38,-252 117.38,-252"/>
<text text-anchor="middle" x="98.88" y="-230.12" font-family="sans" font-size="10.00">checksum</text>
</g>
<!-- 3&#45;&gt;2 -->
<g id="edge5" class="edge">
<title>3&#45;&gt;2</title>
<path fill="none" stroke="grey" stroke-width="2" d="M112.25,-215.34C117.79,-208.01 124.36,-199.34 130.54,-191.18"/>
<polygon fill="grey" stroke="grey" stroke-width="2" points="133.25,-193.4 136.49,-183.32 127.67,-189.18 133.25,-193.4"/>
</g>
<!-- 9 -->
<g id="node10" class="node">
<title>9</title>
<path fill="none" stroke="#d8a456" stroke-width="2" d="M67.75,-180C67.75,-180 12,-180 12,-180 6,-180 0,-174 0,-168 0,-168 0,-156 0,-156 0,-150 6,-144 12,-144 12,-144 67.75,-144 67.75,-144 73.75,-144 79.75,-150 79.75,-156 79.75,-156 79.75,-168 79.75,-168 79.75,-174 73.75,-180 67.75,-180"/>
<text text-anchor="middle" x="39.88" y="-158.12" font-family="sans" font-size="10.00">ingest_dataset</text>
</g>
<!-- 3&#45;&gt;9 -->
<g id="edge12" class="edge">
<title>3&#45;&gt;9</title>
<path fill="none" stroke="grey" stroke-width="2" d="M83.99,-215.34C77.68,-207.85 70.17,-198.95 63.16,-190.63"/>
<polygon fill="grey" stroke="grey" stroke-width="2" points="66.04,-188.61 56.91,-183.22 60.68,-193.12 66.04,-188.61"/>
</g>
<!-- 4 -->
<g id="node5" class="node">
<title>4</title>
<path fill="none" stroke="#56d8c9" stroke-width="2" d="M120.25,-324C120.25,-324 37.5,-324 37.5,-324 31.5,-324 25.5,-318 25.5,-312 25.5,-312 25.5,-300 25.5,-300 25.5,-294 31.5,-288 37.5,-288 37.5,-288 120.25,-288 120.25,-288 126.25,-288 132.25,-294 132.25,-300 132.25,-300 132.25,-312 132.25,-312 132.25,-318 126.25,-324 120.25,-324"/>
<text text-anchor="middle" x="78.88" y="-302.12" font-family="sans" font-size="10.00">harmonize_sumstats</text>
</g>
<!-- 4&#45;&gt;3 -->
<g id="edge7" class="edge">
<title>4&#45;&gt;3</title>
<path fill="none" stroke="grey" stroke-width="2" d="M83.92,-287.34C85.83,-280.67 88.05,-272.89 90.19,-265.39"/>
<polygon fill="grey" stroke="grey" stroke-width="2" points="93.55,-266.39 92.93,-255.81 86.82,-264.47 93.55,-266.39"/>
</g>
<!-- 4&#45;&gt;9 -->
<g id="edge11" class="edge">
<title>4&#45;&gt;9</title>
<path fill="none" stroke="grey" stroke-width="2" d="M71.34,-287.08C67.27,-276.91 62.37,-263.89 58.88,-252 53.26,-232.86 48.56,-210.95 45.24,-193.66"/>
<polygon fill="grey" stroke="grey" stroke-width="2" points="48.69,-193.1 43.43,-183.9 41.81,-194.37 48.69,-193.1"/>
</g>
<!-- 5 -->
<g id="node6" class="node">
<title>5</title>
<path fill="none" stroke="#56d87b" stroke-width="2" d="M107.12,-396C107.12,-396 50.63,-396 50.63,-396 44.62,-396 38.62,-390 38.62,-384 38.62,-384 38.62,-372 38.62,-372 38.62,-366 44.62,-360 50.62,-360 50.62,-360 107.12,-360 107.12,-360 113.12,-360 119.12,-366 119.12,-372 119.12,-372 119.12,-384 119.12,-384 119.12,-390 113.12,-396 107.12,-396"/>
<text text-anchor="middle" x="78.88" y="-379.75" font-family="sans" font-size="10.00">liftover</text>
<text text-anchor="middle" x="78.88" y="-368.5" font-family="sans" font-size="10.00">dataid: ukb&#45;a&#45;1</text>
</g>
<!-- 5&#45;&gt;4 -->
<g id="edge8" class="edge">
<title>5&#45;&gt;4</title>
<path fill="none" stroke="grey" stroke-width="2" d="M78.88,-359.34C78.88,-352.75 78.88,-345.08 78.88,-337.67"/>
<polygon fill="grey" stroke="grey" stroke-width="2" points="82.38,-337.93 78.88,-327.93 75.38,-337.93 82.38,-337.93"/>
</g>
<!-- 6 -->
<g id="node7" class="node">
<title>6</title>
<path fill="none" stroke="#56a2d8" stroke-width="2" d="M223.38,-252C223.38,-252 186.38,-252 186.38,-252 180.38,-252 174.38,-246 174.38,-240 174.38,-240 174.38,-228 174.38,-228 174.38,-222 180.38,-216 186.38,-216 186.38,-216 223.38,-216 223.38,-216 229.38,-216 235.38,-222 235.38,-228 235.38,-228 235.38,-240 235.38,-240 235.38,-246 229.38,-252 223.38,-252"/>
<text text-anchor="middle" x="204.88" y="-230.12" font-family="sans" font-size="10.00">checksum</text>
</g>
<!-- 6&#45;&gt;2 -->
<g id="edge6" class="edge">
<title>6&#45;&gt;2</title>
<path fill="none" stroke="grey" stroke-width="2" d="M191.5,-215.34C185.96,-208.01 179.39,-199.34 173.21,-191.18"/>
<polygon fill="grey" stroke="grey" stroke-width="2" points="176.08,-189.18 167.26,-183.32 170.5,-193.4 176.08,-189.18"/>
</g>
<!-- 10 -->
<g id="node11" class="node">
<title>10</title>
<path fill="none" stroke="#d8a456" stroke-width="2" d="M291.75,-180C291.75,-180 236,-180 236,-180 230,-180 224,-174 224,-168 224,-168 224,-156 224,-156 224,-150 230,-144 236,-144 236,-144 291.75,-144 291.75,-144 297.75,-144 303.75,-150 303.75,-156 303.75,-156 303.75,-168 303.75,-168 303.75,-174 297.75,-180 291.75,-180"/>
<text text-anchor="middle" x="263.88" y="-158.12" font-family="sans" font-size="10.00">ingest_dataset</text>
</g>
<!-- 6&#45;&gt;10 -->
<g id="edge14" class="edge">
<title>6&#45;&gt;10</title>
<path fill="none" stroke="grey" stroke-width="2" d="M219.76,-215.34C226.07,-207.85 233.58,-198.95 240.59,-190.63"/>
<polygon fill="grey" stroke="grey" stroke-width="2" points="243.07,-193.12 246.84,-183.22 237.71,-188.61 243.07,-193.12"/>
</g>
<!-- 7 -->
<g id="node8" class="node">
<title>7</title>
<path fill="none" stroke="#56d8c9" stroke-width="2" d="M265.25,-324C265.25,-324 182.5,-324 182.5,-324 176.5,-324 170.5,-318 170.5,-312 170.5,-312 170.5,-300 170.5,-300 170.5,-294 176.5,-288 182.5,-288 182.5,-288 265.25,-288 265.25,-288 271.25,-288 277.25,-294 277.25,-300 277.25,-300 277.25,-312 277.25,-312 277.25,-318 271.25,-324 265.25,-324"/>
<text text-anchor="middle" x="223.88" y="-302.12" font-family="sans" font-size="10.00">harmonize_sumstats</text>
</g>
<!-- 7&#45;&gt;6 -->
<g id="edge9" class="edge">
<title>7&#45;&gt;6</title>
<path fill="none" stroke="grey" stroke-width="2" d="M219.08,-287.34C217.27,-280.67 215.16,-272.89 213.12,-265.39"/>
<polygon fill="grey" stroke="grey" stroke-width="2" points="216.52,-264.56 210.53,-255.82 209.77,-266.39 216.52,-264.56"/>
</g>
<!-- 7&#45;&gt;10 -->
<g id="edge13" class="edge">
<title>7&#45;&gt;10</title>
<path fill="none" stroke="grey" stroke-width="2" d="M231.83,-287.11C236.12,-276.96 241.26,-263.94 244.88,-252 250.65,-232.91 255.35,-211 258.63,-193.7"/>
<polygon fill="grey" stroke="grey" stroke-width="2" points="262.06,-194.4 260.41,-183.93 255.18,-193.14 262.06,-194.4"/>
</g>
<!-- 8 -->
<g id="node9" class="node">
<title>8</title>
<path fill="none" stroke="#56d87b" stroke-width="2" d="M252.12,-396C252.12,-396 195.62,-396 195.62,-396 189.62,-396 183.62,-390 183.62,-384 183.62,-384 183.62,-372 183.62,-372 183.62,-366 189.62,-360 195.62,-360 195.62,-360 252.12,-360 252.12,-360 258.12,-360 264.12,-366 264.12,-372 264.12,-372 264.12,-384 264.12,-384 264.12,-390 258.12,-396 252.12,-396"/>
<text text-anchor="middle" x="223.88" y="-379.75" font-family="sans" font-size="10.00">liftover</text>
<text text-anchor="middle" x="223.88" y="-368.5" font-family="sans" font-size="10.00">dataid: ukb&#45;a&#45;2</text>
</g>
<!-- 8&#45;&gt;7 -->
<g id="edge10" class="edge">
<title>8&#45;&gt;7</title>
<path fill="none" stroke="grey" stroke-width="2" d="M223.88,-359.34C223.88,-352.75 223.88,-345.08 223.88,-337.67"/>
<polygon fill="grey" stroke="grey" stroke-width="2" points="227.38,-337.93 223.88,-327.93 220.38,-337.93 227.38,-337.93"/>
</g>
<!-- 9&#45;&gt;0 -->
<g id="edge2" class="edge">
<title>9&#45;&gt;0</title>
<path fill="none" stroke="grey" stroke-width="2" d="M50.21,-143.22C61.29,-124.71 79.87,-95.25 98.88,-72 106.22,-63.02 114.87,-53.87 123.03,-45.76"/>
<polygon fill="grey" stroke="grey" stroke-width="2" points="125.37,-48.36 130.11,-38.89 120.49,-43.34 125.37,-48.36"/>
</g>
<!-- 10&#45;&gt;0 -->
<g id="edge3" class="edge">
<title>10&#45;&gt;0</title>
<path fill="none" stroke="grey" stroke-width="2" d="M253.54,-143.22C242.46,-124.71 223.88,-95.25 204.88,-72 197.53,-63.02 188.88,-53.87 180.72,-45.76"/>
<polygon fill="grey" stroke="grey" stroke-width="2" points="183.26,-43.34 173.64,-38.89 178.38,-48.36 183.26,-43.34"/>
</g>
</g>
</svg>
