<?xml version="1.0" encoding="UTF-8" standalone="no"?>
<!DOCTYPE svg PUBLIC "-//W3C//DTD SVG 1.1//EN"
 "http://www.w3.org/Graphics/SVG/1.1/DTD/svg11.dtd">
<!-- Generated by graphviz version 12.2.1 (20241206.2353)
 -->
<!-- Title: snakemake_dag Pages: 1 -->
<svg width="1627pt" height="188pt"
 viewBox="0.00 0.00 1626.75 188.00" xmlns="http://www.w3.org/2000/svg" xmlns:xlink="http://www.w3.org/1999/xlink">
<g id="graph0" class="graph" transform="scale(1 1) rotate(0) translate(4 184)">
<title>snakemake_dag</title>
<polygon fill="white" stroke="none" points="-4,4 -4,-184 1622.75,-184 1622.75,4 -4,4"/>
<!-- 0 -->
<g id="node1" class="node">
<title>0</title>
<path fill="none" stroke="#56d8a9" stroke-width="2" d="M833.38,-36C833.38,-36 803.38,-36 803.38,-36 797.38,-36 791.38,-30 791.38,-24 791.38,-24 791.38,-12 791.38,-12 791.38,-6 797.38,0 803.38,0 803.38,0 833.38,0 833.38,0 839.38,0 845.38,-6 845.38,-12 845.38,-12 845.38,-24 845.38,-24 845.38,-30 839.38,-36 833.38,-36"/>
<text text-anchor="middle" x="818.38" y="-14.12" font-family="sans" font-size="10.00">all</text>
</g>
<!-- 1 -->
<g id="node2" class="node">
<title>1</title>
<path fill="none" stroke="#afd856" stroke-width="2" d="M405.38,-108C405.38,-108 341.38,-108 341.38,-108 335.38,-108 329.38,-102 329.38,-96 329.38,-96 329.38,-84 329.38,-84 329.38,-78 335.38,-72 341.38,-72 341.38,-72 405.38,-72 405.38,-72 411.38,-72 417.38,-78 417.38,-84 417.38,-84 417.38,-96 417.38,-96 417.38,-102 411.38,-108 405.38,-108"/>
<text text-anchor="middle" x="373.38" y="-86.12" font-family="sans" font-size="10.00">ingest_metadata</text>
</g>
<!-- 1&#45;&gt;0 -->
<g id="edge1" class="edge">
<title>1&#45;&gt;0</title>
<path fill="none" stroke="grey" stroke-width="2" d="M418.33,-73.99C421.04,-73.27 423.74,-72.6 426.38,-72 552.86,-43.4 706.03,-28.15 777.7,-22.12"/>
<polygon fill="grey" stroke="grey" stroke-width="2" points="777.81,-25.63 787.49,-21.32 777.24,-18.65 777.81,-25.63"/>
</g>
<!-- 2 -->
<g id="node3" class="node">
<title>2</title>
<path fill="none" stroke="#56a9d8" stroke-width="2" d="M503.25,-108C503.25,-108 447.5,-108 447.5,-108 441.5,-108 435.5,-102 435.5,-96 435.5,-96 435.5,-84 435.5,-84 435.5,-78 441.5,-72 447.5,-72 447.5,-72 503.25,-72 503.25,-72 509.25,-72 515.25,-78 515.25,-84 515.25,-84 515.25,-96 515.25,-96 515.25,-102 509.25,-108 503.25,-108"/>
<text text-anchor="middle" x="475.38" y="-86.12" font-family="sans" font-size="10.00">ingest_dataset</text>
</g>
<!-- 2&#45;&gt;0 -->
<g id="edge2" class="edge">
<title>2&#45;&gt;0</title>
<path fill="none" stroke="grey" stroke-width="2" d="M516.14,-74.33C518.91,-73.49 521.67,-72.71 524.38,-72 613.56,-48.64 720.63,-32.17 777.76,-24.28"/>
<polygon fill="grey" stroke="grey" stroke-width="2" points="778.06,-27.77 787.5,-22.96 777.12,-20.84 778.06,-27.77"/>
</g>
<!-- 3 -->
<g id="node4" class="node">
<title>3</title>
<path fill="none" stroke="#d85656" stroke-width="2" d="M172.75,-180C172.75,-180 12,-180 12,-180 6,-180 0,-174 0,-168 0,-168 0,-156 0,-156 0,-150 6,-144 12,-144 12,-144 172.75,-144 172.75,-144 178.75,-144 184.75,-150 184.75,-156 184.75,-156 184.75,-168 184.75,-168 184.75,-174 178.75,-180 172.75,-180"/>
<text text-anchor="middle" x="92.38" y="-163.75" font-family="sans" font-size="10.00">harmonize_sumstats</text>
<text text-anchor="middle" x="92.38" y="-152.5" font-family="sans" font-size="10.00">dataid: ukb&#45;d&#45;XIII_MUSCULOSKELET</text>
</g>
<!-- 3&#45;&gt;2 -->
<g id="edge11" class="edge">
<title>3&#45;&gt;2</title>
<path fill="none" stroke="grey" stroke-width="2" d="M185.64,-145.25C188.25,-144.83 190.83,-144.41 193.38,-144 292.78,-127.96 322.39,-132.84 422.12,-108.83"/>
<polygon fill="grey" stroke="grey" stroke-width="2" points="422.82,-112.26 431.69,-106.47 421.15,-105.46 422.82,-112.26"/>
</g>
<!-- 4 -->
<g id="node5" class="node">
<title>4</title>
<path fill="none" stroke="#56a9d8" stroke-width="2" d="M601.25,-108C601.25,-108 545.5,-108 545.5,-108 539.5,-108 533.5,-102 533.5,-96 533.5,-96 533.5,-84 533.5,-84 533.5,-78 539.5,-72 545.5,-72 545.5,-72 601.25,-72 601.25,-72 607.25,-72 613.25,-78 613.25,-84 613.25,-84 613.25,-96 613.25,-96 613.25,-102 607.25,-108 601.25,-108"/>
<text text-anchor="middle" x="573.38" y="-86.12" font-family="sans" font-size="10.00">ingest_dataset</text>
</g>
<!-- 4&#45;&gt;0 -->
<g id="edge3" class="edge">
<title>4&#45;&gt;0</title>
<path fill="none" stroke="grey" stroke-width="2" d="M614.21,-74.59C616.97,-73.69 619.71,-72.82 622.38,-72 675.79,-55.53 738.24,-39.13 778.03,-29.03"/>
<polygon fill="grey" stroke="grey" stroke-width="2" points="778.84,-32.44 787.68,-26.6 777.12,-25.65 778.84,-32.44"/>
</g>
<!-- 5 -->
<g id="node6" class="node">
<title>5</title>
<path fill="none" stroke="#d85656" stroke-width="2" d="M368.38,-180C368.38,-180 214.38,-180 214.38,-180 208.38,-180 202.38,-174 202.38,-168 202.38,-168 202.38,-156 202.38,-156 202.38,-150 208.38,-144 214.38,-144 214.38,-144 368.38,-144 368.38,-144 374.38,-144 380.38,-150 380.38,-156 380.38,-156 380.38,-168 380.38,-168 380.38,-174 374.38,-180 368.38,-180"/>
<text text-anchor="middle" x="291.38" y="-163.75" font-family="sans" font-size="10.00">harmonize_sumstats</text>
<text text-anchor="middle" x="291.38" y="-152.5" font-family="sans" font-size="10.00">dataid: ukb&#45;d&#45;XII_SKIN_SUBCUTAN</text>
</g>
<!-- 5&#45;&gt;4 -->
<g id="edge12" class="edge">
<title>5&#45;&gt;4</title>
<path fill="none" stroke="grey" stroke-width="2" d="M381.03,-143.03C421.35,-134.37 469.71,-123.22 520.35,-109.01"/>
<polygon fill="grey" stroke="grey" stroke-width="2" points="521,-112.46 529.66,-106.36 519.09,-105.73 521,-112.46"/>
</g>
<!-- 6 -->
<g id="node7" class="node">
<title>6</title>
<path fill="none" stroke="#56a9d8" stroke-width="2" d="M699.25,-108C699.25,-108 643.5,-108 643.5,-108 637.5,-108 631.5,-102 631.5,-96 631.5,-96 631.5,-84 631.5,-84 631.5,-78 637.5,-72 643.5,-72 643.5,-72 699.25,-72 699.25,-72 705.25,-72 711.25,-78 711.25,-84 711.25,-84 711.25,-96 711.25,-96 711.25,-102 705.25,-108 699.25,-108"/>
<text text-anchor="middle" x="671.38" y="-86.12" font-family="sans" font-size="10.00">ingest_dataset</text>
</g>
<!-- 6&#45;&gt;0 -->
<g id="edge4" class="edge">
<title>6&#45;&gt;0</title>
<path fill="none" stroke="grey" stroke-width="2" d="M708.85,-71.15C730.38,-60.9 757.39,-48.04 779.2,-37.65"/>
<polygon fill="grey" stroke="grey" stroke-width="2" points="780.46,-40.93 787.98,-33.47 777.45,-34.61 780.46,-40.93"/>
</g>
<!-- 7 -->
<g id="node8" class="node">
<title>7</title>
<path fill="none" stroke="#d85656" stroke-width="2" d="M530.5,-180C530.5,-180 410.25,-180 410.25,-180 404.25,-180 398.25,-174 398.25,-168 398.25,-168 398.25,-156 398.25,-156 398.25,-150 404.25,-144 410.25,-144 410.25,-144 530.5,-144 530.5,-144 536.5,-144 542.5,-150 542.5,-156 542.5,-156 542.5,-168 542.5,-168 542.5,-174 536.5,-180 530.5,-180"/>
<text text-anchor="middle" x="470.38" y="-163.75" font-family="sans" font-size="10.00">harmonize_sumstats</text>
<text text-anchor="middle" x="470.38" y="-152.5" font-family="sans" font-size="10.00">dataid: ukb&#45;d&#45;XI_DIGESTIVE</text>
</g>
<!-- 7&#45;&gt;6 -->
<g id="edge13" class="edge">
<title>7&#45;&gt;6</title>
<path fill="none" stroke="grey" stroke-width="2" d="M521.88,-143.06C551.63,-132.7 588.96,-119.7 618.87,-109.28"/>
<polygon fill="grey" stroke="grey" stroke-width="2" points="619.63,-112.73 627.92,-106.13 617.33,-106.12 619.63,-112.73"/>
</g>
<!-- 8 -->
<g id="node9" class="node">
<title>8</title>
<path fill="none" stroke="#56a9d8" stroke-width="2" d="M797.25,-108C797.25,-108 741.5,-108 741.5,-108 735.5,-108 729.5,-102 729.5,-96 729.5,-96 729.5,-84 729.5,-84 729.5,-78 735.5,-72 741.5,-72 741.5,-72 797.25,-72 797.25,-72 803.25,-72 809.25,-78 809.25,-84 809.25,-84 809.25,-96 809.25,-96 809.25,-102 803.25,-108 797.25,-108"/>
<text text-anchor="middle" x="769.38" y="-86.12" font-family="sans" font-size="10.00">ingest_dataset</text>
</g>
<!-- 8&#45;&gt;0 -->
<g id="edge5" class="edge">
<title>8&#45;&gt;0</title>
<path fill="none" stroke="grey" stroke-width="2" d="M781.74,-71.34C786.81,-64.1 792.8,-55.53 798.46,-47.45"/>
<polygon fill="grey" stroke="grey" stroke-width="2" points="801.24,-49.58 804.11,-39.38 795.51,-45.57 801.24,-49.58"/>
</g>
<!-- 9 -->
<g id="node10" class="node">
<title>9</title>
<path fill="none" stroke="#d85656" stroke-width="2" d="M726,-180C726,-180 572.75,-180 572.75,-180 566.75,-180 560.75,-174 560.75,-168 560.75,-168 560.75,-156 560.75,-156 560.75,-150 566.75,-144 572.75,-144 572.75,-144 726,-144 726,-144 732,-144 738,-150 738,-156 738,-156 738,-168 738,-168 738,-174 732,-180 726,-180"/>
<text text-anchor="middle" x="649.38" y="-163.75" font-family="sans" font-size="10.00">harmonize_sumstats</text>
<text text-anchor="middle" x="649.38" y="-152.5" font-family="sans" font-size="10.00">dataid: ukb&#45;d&#45;XVIII_MISCFINDINGS</text>
</g>
<!-- 9&#45;&gt;8 -->
<g id="edge14" class="edge">
<title>9&#45;&gt;8</title>
<path fill="none" stroke="grey" stroke-width="2" d="M679.97,-143.15C694.49,-134.68 712.08,-124.42 727.8,-115.25"/>
<polygon fill="grey" stroke="grey" stroke-width="2" points="729.35,-118.4 736.22,-110.34 725.82,-112.35 729.35,-118.4"/>
</g>
<!-- 10 -->
<g id="node11" class="node">
<title>10</title>
<path fill="none" stroke="#56a9d8" stroke-width="2" d="M895.25,-108C895.25,-108 839.5,-108 839.5,-108 833.5,-108 827.5,-102 827.5,-96 827.5,-96 827.5,-84 827.5,-84 827.5,-78 833.5,-72 839.5,-72 839.5,-72 895.25,-72 895.25,-72 901.25,-72 907.25,-78 907.25,-84 907.25,-84 907.25,-96 907.25,-96 907.25,-102 901.25,-108 895.25,-108"/>
<text text-anchor="middle" x="867.38" y="-86.12" font-family="sans" font-size="10.00">ingest_dataset</text>
</g>
<!-- 10&#45;&gt;0 -->
<g id="edge6" class="edge">
<title>10&#45;&gt;0</title>
<path fill="none" stroke="grey" stroke-width="2" d="M855.01,-71.34C849.94,-64.1 843.95,-55.53 838.29,-47.45"/>
<polygon fill="grey" stroke="grey" stroke-width="2" points="841.24,-45.57 832.64,-39.38 835.51,-49.58 841.24,-45.57"/>
</g>
<!-- 11 -->
<g id="node12" class="node">
<title>11</title>
<path fill="none" stroke="#d85656" stroke-width="2" d="M966.88,-180C966.88,-180 767.88,-180 767.88,-180 761.88,-180 755.88,-174 755.88,-168 755.88,-168 755.88,-156 755.88,-156 755.88,-150 761.88,-144 767.88,-144 767.88,-144 966.88,-144 966.88,-144 972.88,-144 978.88,-150 978.88,-156 978.88,-156 978.88,-168 978.88,-168 978.88,-174 972.88,-180 966.88,-180"/>
<text text-anchor="middle" x="867.38" y="-163.75" font-family="sans" font-size="10.00">harmonize_sumstats</text>
<text text-anchor="middle" x="867.38" y="-152.5" font-family="sans" font-size="10.00">dataid: ukb&#45;d&#45;XVII_MALFORMAT_ABNORMAL</text>
</g>
<!-- 11&#45;&gt;10 -->
<g id="edge15" class="edge">
<title>11&#45;&gt;10</title>
<path fill="none" stroke="grey" stroke-width="2" d="M867.38,-143.34C867.38,-136.75 867.38,-129.08 867.38,-121.67"/>
<polygon fill="grey" stroke="grey" stroke-width="2" points="870.88,-121.93 867.38,-111.93 863.88,-121.93 870.88,-121.93"/>
</g>
<!-- 12 -->
<g id="node13" class="node">
<title>12</title>
<path fill="none" stroke="#56a9d8" stroke-width="2" d="M1057.25,-108C1057.25,-108 1001.5,-108 1001.5,-108 995.5,-108 989.5,-102 989.5,-96 989.5,-96 989.5,-84 989.5,-84 989.5,-78 995.5,-72 1001.5,-72 1001.5,-72 1057.25,-72 1057.25,-72 1063.25,-72 1069.25,-78 1069.25,-84 1069.25,-84 1069.25,-96 1069.25,-96 1069.25,-102 1063.25,-108 1057.25,-108"/>
<text text-anchor="middle" x="1029.38" y="-86.12" font-family="sans" font-size="10.00">ingest_dataset</text>
</g>
<!-- 12&#45;&gt;0 -->
<g id="edge7" class="edge">
<title>12&#45;&gt;0</title>
<path fill="none" stroke="grey" stroke-width="2" d="M988.69,-75.5C951.03,-63.01 895.39,-44.55 858.06,-32.16"/>
<polygon fill="grey" stroke="grey" stroke-width="2" points="859.62,-28.99 849.02,-29.17 857.41,-35.64 859.62,-28.99"/>
</g>
<!-- 13 -->
<g id="node14" class="node">
<title>13</title>
<path fill="none" stroke="#d85656" stroke-width="2" d="M1179.62,-180C1179.62,-180 1009.12,-180 1009.12,-180 1003.12,-180 997.12,-174 997.12,-168 997.12,-168 997.12,-156 997.12,-156 997.12,-150 1003.12,-144 1009.12,-144 1009.12,-144 1179.62,-144 1179.62,-144 1185.62,-144 1191.62,-150 1191.62,-156 1191.62,-156 1191.62,-168 1191.62,-168 1191.62,-174 1185.62,-180 1179.62,-180"/>
<text text-anchor="middle" x="1094.38" y="-163.75" font-family="sans" font-size="10.00">harmonize_sumstats</text>
<text text-anchor="middle" x="1094.38" y="-152.5" font-family="sans" font-size="10.00">dataid: ukb&#45;d&#45;XV_PREGNANCY_BIRTH</text>
</g>
<!-- 13&#45;&gt;12 -->
<g id="edge16" class="edge">
<title>13&#45;&gt;12</title>
<path fill="none" stroke="grey" stroke-width="2" d="M1077.97,-143.34C1070.94,-135.77 1062.57,-126.75 1054.77,-118.35"/>
<polygon fill="grey" stroke="grey" stroke-width="2" points="1057.43,-116.07 1048.06,-111.12 1052.3,-120.83 1057.43,-116.07"/>
</g>
<!-- 14 -->
<g id="node15" class="node">
<title>14</title>
<path fill="none" stroke="#56a9d8" stroke-width="2" d="M1236.25,-108C1236.25,-108 1180.5,-108 1180.5,-108 1174.5,-108 1168.5,-102 1168.5,-96 1168.5,-96 1168.5,-84 1168.5,-84 1168.5,-78 1174.5,-72 1180.5,-72 1180.5,-72 1236.25,-72 1236.25,-72 1242.25,-72 1248.25,-78 1248.25,-84 1248.25,-84 1248.25,-96 1248.25,-96 1248.25,-102 1242.25,-108 1236.25,-108"/>
<text text-anchor="middle" x="1208.38" y="-86.12" font-family="sans" font-size="10.00">ingest_dataset</text>
</g>
<!-- 14&#45;&gt;0 -->
<g id="edge8" class="edge">
<title>14&#45;&gt;0</title>
<path fill="none" stroke="grey" stroke-width="2" d="M1167.74,-81.71C1092.74,-68.25 933.42,-39.65 858.67,-26.23"/>
<polygon fill="grey" stroke="grey" stroke-width="2" points="859.6,-22.84 849.14,-24.52 858.36,-29.73 859.6,-22.84"/>
</g>
<!-- 15 -->
<g id="node16" class="node">
<title>15</title>
<path fill="none" stroke="#d85656" stroke-width="2" d="M1357,-180C1357,-180 1221.75,-180 1221.75,-180 1215.75,-180 1209.75,-174 1209.75,-168 1209.75,-168 1209.75,-156 1209.75,-156 1209.75,-150 1215.75,-144 1221.75,-144 1221.75,-144 1357,-144 1357,-144 1363,-144 1369,-150 1369,-156 1369,-156 1369,-168 1369,-168 1369,-174 1363,-180 1357,-180"/>
<text text-anchor="middle" x="1289.38" y="-163.75" font-family="sans" font-size="10.00">harmonize_sumstats</text>
<text text-anchor="middle" x="1289.38" y="-152.5" font-family="sans" font-size="10.00">dataid: ukb&#45;d&#45;X_RESPIRATORY</text>
</g>
<!-- 15&#45;&gt;14 -->
<g id="edge17" class="edge">
<title>15&#45;&gt;14</title>
<path fill="none" stroke="grey" stroke-width="2" d="M1268.94,-143.34C1259.8,-135.44 1248.83,-125.96 1238.76,-117.26"/>
<polygon fill="grey" stroke="grey" stroke-width="2" points="1241.23,-114.77 1231.38,-110.88 1236.66,-120.07 1241.23,-114.77"/>
</g>
<!-- 16 -->
<g id="node17" class="node">
<title>16</title>
<path fill="none" stroke="#56a9d8" stroke-width="2" d="M1401.25,-108C1401.25,-108 1345.5,-108 1345.5,-108 1339.5,-108 1333.5,-102 1333.5,-96 1333.5,-96 1333.5,-84 1333.5,-84 1333.5,-78 1339.5,-72 1345.5,-72 1345.5,-72 1401.25,-72 1401.25,-72 1407.25,-72 1413.25,-78 1413.25,-84 1413.25,-84 1413.25,-96 1413.25,-96 1413.25,-102 1407.25,-108 1401.25,-108"/>
<text text-anchor="middle" x="1373.38" y="-86.12" font-family="sans" font-size="10.00">ingest_dataset</text>
</g>
<!-- 16&#45;&gt;0 -->
<g id="edge9" class="edge">
<title>16&#45;&gt;0</title>
<path fill="none" stroke="grey" stroke-width="2" d="M1332.61,-82.77C1310.39,-79.44 1282.39,-75.34 1257.38,-72 1110.94,-52.43 936.58,-32.33 859.04,-23.56"/>
<polygon fill="grey" stroke="grey" stroke-width="2" points="859.48,-20.09 849.15,-22.44 858.69,-27.04 859.48,-20.09"/>
</g>
<!-- 17 -->
<g id="node18" class="node">
<title>17</title>
<path fill="none" stroke="#d85656" stroke-width="2" d="M1481.75,-180C1481.75,-180 1399,-180 1399,-180 1393,-180 1387,-174 1387,-168 1387,-168 1387,-156 1387,-156 1387,-150 1393,-144 1399,-144 1399,-144 1481.75,-144 1481.75,-144 1487.75,-144 1493.75,-150 1493.75,-156 1493.75,-156 1493.75,-168 1493.75,-168 1493.75,-174 1487.75,-180 1481.75,-180"/>
<text text-anchor="middle" x="1440.38" y="-163.75" font-family="sans" font-size="10.00">harmonize_sumstats</text>
<text text-anchor="middle" x="1440.38" y="-152.5" font-family="sans" font-size="10.00">dataid: ukb&#45;d&#45;Z01</text>
</g>
<!-- 17&#45;&gt;16 -->
<g id="edge18" class="edge">
<title>17&#45;&gt;16</title>
<path fill="none" stroke="grey" stroke-width="2" d="M1423.47,-143.34C1416.14,-135.69 1407.41,-126.56 1399.29,-118.08"/>
<polygon fill="grey" stroke="grey" stroke-width="2" points="1402.05,-115.89 1392.6,-111.09 1396.99,-120.73 1402.05,-115.89"/>
</g>
<!-- 18 -->
<g id="node19" class="node">
<title>18</title>
<path fill="none" stroke="#56a9d8" stroke-width="2" d="M1546.25,-108C1546.25,-108 1490.5,-108 1490.5,-108 1484.5,-108 1478.5,-102 1478.5,-96 1478.5,-96 1478.5,-84 1478.5,-84 1478.5,-78 1484.5,-72 1490.5,-72 1490.5,-72 1546.25,-72 1546.25,-72 1552.25,-72 1558.25,-78 1558.25,-84 1558.25,-84 1558.25,-96 1558.25,-96 1558.25,-102 1552.25,-108 1546.25,-108"/>
<text text-anchor="middle" x="1518.38" y="-86.12" font-family="sans" font-size="10.00">ingest_dataset</text>
</g>
<!-- 18&#45;&gt;0 -->
<g id="edge10" class="edge">
<title>18&#45;&gt;0</title>
<path fill="none" stroke="grey" stroke-width="2" d="M1477.86,-81.01C1460.78,-77.86 1440.67,-74.42 1422.38,-72 1211.29,-44.1 956.7,-27.2 859.13,-21.34"/>
<polygon fill="grey" stroke="grey" stroke-width="2" points="859.37,-17.85 849.19,-20.75 858.96,-24.83 859.37,-17.85"/>
</g>
<!-- 19 -->
<g id="node20" class="node">
<title>19</title>
<path fill="none" stroke="#d85656" stroke-width="2" d="M1606.75,-180C1606.75,-180 1524,-180 1524,-180 1518,-180 1512,-174 1512,-168 1512,-168 1512,-156 1512,-156 1512,-150 1518,-144 1524,-144 1524,-144 1606.75,-144 1606.75,-144 1612.75,-144 1618.75,-150 1618.75,-156 1618.75,-156 1618.75,-168 1618.75,-168 1618.75,-174 1612.75,-180 1606.75,-180"/>
<text text-anchor="middle" x="1565.38" y="-163.75" font-family="sans" font-size="10.00">harmonize_sumstats</text>
<text text-anchor="middle" x="1565.38" y="-152.5" font-family="sans" font-size="10.00">dataid: ukb&#45;d&#45;Z42</text>
</g>
<!-- 19&#45;&gt;18 -->
<g id="edge19" class="edge">
<title>19&#45;&gt;18</title>
<path fill="none" stroke="grey" stroke-width="2" d="M1553.51,-143.34C1548.65,-136.1 1542.9,-127.53 1537.48,-119.45"/>
<polygon fill="grey" stroke="grey" stroke-width="2" points="1540.56,-117.77 1532.08,-111.41 1534.75,-121.67 1540.56,-117.77"/>
</g>
</g>
</svg>
