<?xml version="1.0" encoding="UTF-8" standalone="no"?>
<!DOCTYPE svg PUBLIC "-//W3C//DTD SVG 1.1//EN"
 "http://www.w3.org/Graphics/SVG/1.1/DTD/svg11.dtd">
<!-- Generated by graphviz version 12.2.0 (20241103.1931)
 -->
<!-- Title: snakemake_dag Pages: 1 -->
<svg width="325pt" height="260pt"
 viewBox="0.00 0.00 325.38 260.00" xmlns="http://www.w3.org/2000/svg" xmlns:xlink="http://www.w3.org/1999/xlink">
<g id="graph0" class="graph" transform="scale(1 1) rotate(0) translate(4 256)">
<title>snakemake_dag</title>
<polygon fill="white" stroke="none" points="-4,4 -4,-256 321.38,-256 321.38,4 -4,4"/>
<!-- 0 -->
<g id="node1" class="node">
<title>0</title>
<path fill="none" stroke="#d85656" stroke-width="2" d="M161,-36C161,-36 131,-36 131,-36 125,-36 119,-30 119,-24 119,-24 119,-12 119,-12 119,-6 125,0 131,0 131,0 161,0 161,0 167,0 173,-6 173,-12 173,-12 173,-24 173,-24 173,-30 167,-36 161,-36"/>
<text text-anchor="middle" x="146" y="-14.12" font-family="sans" font-size="10.00">all</text>
</g>
<!-- 1 -->
<g id="node2" class="node">
<title>1</title>
<path fill="none" stroke="#88d856" stroke-width="2" d="M76,-108C76,-108 12,-108 12,-108 6,-108 0,-102 0,-96 0,-96 0,-84 0,-84 0,-78 6,-72 12,-72 12,-72 76,-72 76,-72 82,-72 88,-78 88,-84 88,-84 88,-96 88,-96 88,-102 82,-108 76,-108"/>
<text text-anchor="middle" x="44" y="-86.12" font-family="sans" font-size="10.00">ingest_metadata</text>
</g>
<!-- 1&#45;&gt;0 -->
<g id="edge1" class="edge">
<title>1&#45;&gt;0</title>
<path fill="none" stroke="grey" stroke-width="2" d="M70,-71.15C81.99,-62.93 96.43,-53.02 109.49,-44.06"/>
<polygon fill="grey" stroke="grey" stroke-width="2" points="111.28,-47.07 117.55,-38.53 107.32,-41.3 111.28,-47.07"/>
</g>
<!-- 2 -->
<g id="node3" class="node">
<title>2</title>
<path fill="none" stroke="#d8bc56" stroke-width="2" d="M173.88,-108C173.88,-108 118.12,-108 118.12,-108 112.12,-108 106.12,-102 106.12,-96 106.12,-96 106.12,-84 106.12,-84 106.12,-78 112.12,-72 118.12,-72 118.12,-72 173.88,-72 173.88,-72 179.88,-72 185.88,-78 185.88,-84 185.88,-84 185.88,-96 185.88,-96 185.88,-102 179.88,-108 173.88,-108"/>
<text text-anchor="middle" x="146" y="-86.12" font-family="sans" font-size="10.00">ingest_dataset</text>
</g>
<!-- 2&#45;&gt;0 -->
<g id="edge2" class="edge">
<title>2&#45;&gt;0</title>
<path fill="none" stroke="grey" stroke-width="2" d="M146,-71.34C146,-64.75 146,-57.08 146,-49.67"/>
<polygon fill="grey" stroke="grey" stroke-width="2" points="149.5,-49.93 146,-39.93 142.5,-49.93 149.5,-49.93"/>
</g>
<!-- 3 -->
<g id="node4" class="node">
<title>3</title>
<path fill="none" stroke="#56c1d8" stroke-width="2" d="M180.38,-180C180.38,-180 97.62,-180 97.62,-180 91.62,-180 85.62,-174 85.62,-168 85.62,-168 85.62,-156 85.62,-156 85.62,-150 91.62,-144 97.62,-144 97.62,-144 180.38,-144 180.38,-144 186.38,-144 192.38,-150 192.38,-156 192.38,-156 192.38,-168 192.38,-168 192.38,-174 186.38,-180 180.38,-180"/>
<text text-anchor="middle" x="139" y="-158.12" font-family="sans" font-size="10.00">harmonize_sumstats</text>
</g>
<!-- 3&#45;&gt;2 -->
<g id="edge4" class="edge">
<title>3&#45;&gt;2</title>
<path fill="none" stroke="grey" stroke-width="2" d="M140.77,-143.34C141.42,-136.75 142.19,-129.08 142.93,-121.67"/>
<polygon fill="grey" stroke="grey" stroke-width="2" points="146.4,-122.21 143.91,-111.91 139.43,-121.52 146.4,-122.21"/>
</g>
<!-- 4 -->
<g id="node5" class="node">
<title>4</title>
<path fill="none" stroke="#56d88a" stroke-width="2" d="M178.12,-252C178.12,-252 99.88,-252 99.88,-252 93.88,-252 87.88,-246 87.88,-240 87.88,-240 87.88,-228 87.88,-228 87.88,-222 93.88,-216 99.88,-216 99.88,-216 178.12,-216 178.12,-216 184.12,-216 190.12,-222 190.12,-228 190.12,-228 190.12,-240 190.12,-240 190.12,-246 184.12,-252 178.12,-252"/>
<text text-anchor="middle" x="139" y="-235.75" font-family="sans" font-size="10.00">liftover</text>
<text text-anchor="middle" x="139" y="-224.5" font-family="sans" font-size="10.00">dataid: ukb&#45;a&#45;1&#45;chr1</text>
</g>
<!-- 4&#45;&gt;3 -->
<g id="edge5" class="edge">
<title>4&#45;&gt;3</title>
<path fill="none" stroke="grey" stroke-width="2" d="M139,-215.34C139,-208.75 139,-201.08 139,-193.67"/>
<polygon fill="grey" stroke="grey" stroke-width="2" points="142.5,-193.93 139,-183.93 135.5,-193.93 142.5,-193.93"/>
</g>
<!-- 5 -->
<g id="node6" class="node">
<title>5</title>
<path fill="none" stroke="#d8bc56" stroke-width="2" d="M284.88,-108C284.88,-108 229.12,-108 229.12,-108 223.12,-108 217.12,-102 217.12,-96 217.12,-96 217.12,-84 217.12,-84 217.12,-78 223.12,-72 229.12,-72 229.12,-72 284.88,-72 284.88,-72 290.88,-72 296.88,-78 296.88,-84 296.88,-84 296.88,-96 296.88,-96 296.88,-102 290.88,-108 284.88,-108"/>
<text text-anchor="middle" x="257" y="-86.12" font-family="sans" font-size="10.00">ingest_dataset</text>
</g>
<!-- 5&#45;&gt;0 -->
<g id="edge3" class="edge">
<title>5&#45;&gt;0</title>
<path fill="none" stroke="grey" stroke-width="2" d="M228.7,-71.15C215.29,-62.7 199.07,-52.47 184.55,-43.31"/>
<polygon fill="grey" stroke="grey" stroke-width="2" points="186.75,-40.56 176.42,-38.18 183.01,-46.48 186.75,-40.56"/>
</g>
<!-- 6 -->
<g id="node7" class="node">
<title>6</title>
<path fill="none" stroke="#56c1d8" stroke-width="2" d="M305.38,-180C305.38,-180 222.62,-180 222.62,-180 216.62,-180 210.62,-174 210.62,-168 210.62,-168 210.62,-156 210.62,-156 210.62,-150 216.62,-144 222.62,-144 222.62,-144 305.38,-144 305.38,-144 311.38,-144 317.38,-150 317.38,-156 317.38,-156 317.38,-168 317.38,-168 317.38,-174 311.38,-180 305.38,-180"/>
<text text-anchor="middle" x="264" y="-158.12" font-family="sans" font-size="10.00">harmonize_sumstats</text>
</g>
<!-- 6&#45;&gt;5 -->
<g id="edge6" class="edge">
<title>6&#45;&gt;5</title>
<path fill="none" stroke="grey" stroke-width="2" d="M262.23,-143.34C261.58,-136.75 260.81,-129.08 260.07,-121.67"/>
<polygon fill="grey" stroke="grey" stroke-width="2" points="263.57,-121.52 259.09,-111.91 256.6,-122.21 263.57,-121.52"/>
</g>
<!-- 7 -->
<g id="node8" class="node">
<title>7</title>
<path fill="none" stroke="#56d88a" stroke-width="2" d="M303.12,-252C303.12,-252 224.88,-252 224.88,-252 218.88,-252 212.88,-246 212.88,-240 212.88,-240 212.88,-228 212.88,-228 212.88,-222 218.88,-216 224.88,-216 224.88,-216 303.12,-216 303.12,-216 309.12,-216 315.12,-222 315.12,-228 315.12,-228 315.12,-240 315.12,-240 315.12,-246 309.12,-252 303.12,-252"/>
<text text-anchor="middle" x="264" y="-235.75" font-family="sans" font-size="10.00">liftover</text>
<text text-anchor="middle" x="264" y="-224.5" font-family="sans" font-size="10.00">dataid: ukb&#45;a&#45;2&#45;chr1</text>
</g>
<!-- 7&#45;&gt;6 -->
<g id="edge7" class="edge">
<title>7&#45;&gt;6</title>
<path fill="none" stroke="grey" stroke-width="2" d="M264,-215.34C264,-208.75 264,-201.08 264,-193.67"/>
<polygon fill="grey" stroke="grey" stroke-width="2" points="267.5,-193.93 264,-183.93 260.5,-193.93 267.5,-193.93"/>
</g>
</g>
</svg>
