<?xml version="1.0" encoding="UTF-8" standalone="no"?>
<!DOCTYPE svg PUBLIC "-//W3C//DTD SVG 1.1//EN"
 "http://www.w3.org/Graphics/SVG/1.1/DTD/svg11.dtd">
<!-- Generated by graphviz version 2.50.0 (20240430.0900)
 -->
<!-- Title: snakemake_dag Pages: 1 -->
<svg width="236pt" height="332pt"
 viewBox="0.00 0.00 236.00 332.00" xmlns="http://www.w3.org/2000/svg" xmlns:xlink="http://www.w3.org/1999/xlink">
<g id="graph0" class="graph" transform="scale(1 1) rotate(0) translate(4 328)">
<title>snakemake_dag</title>
<polygon fill="white" stroke="transparent" points="-4,4 -4,-328 232,-328 232,4 -4,4"/>
<!-- 0 -->
<g id="node1" class="node">
<title>0</title>
<path fill="none" stroke="#d85656" stroke-width="2" d="M136.5,-36C136.5,-36 106.5,-36 106.5,-36 100.5,-36 94.5,-30 94.5,-24 94.5,-24 94.5,-12 94.5,-12 94.5,-6 100.5,0 106.5,0 106.5,0 136.5,0 136.5,0 142.5,0 148.5,-6 148.5,-12 148.5,-12 148.5,-24 148.5,-24 148.5,-30 142.5,-36 136.5,-36"/>
<text text-anchor="middle" x="121.5" y="-15.5" font-family="sans" font-size="10.00">all</text>
</g>
<!-- 1 -->
<g id="node2" class="node">
<title>1</title>
<path fill="none" stroke="#d8ac56" stroke-width="2" d="M120,-108C120,-108 45,-108 45,-108 39,-108 33,-102 33,-96 33,-96 33,-84 33,-84 33,-78 39,-72 45,-72 45,-72 120,-72 120,-72 126,-72 132,-78 132,-84 132,-84 132,-96 132,-96 132,-102 126,-108 120,-108"/>
<text text-anchor="middle" x="82.5" y="-87.5" font-family="sans" font-size="10.00">ingest_metadata</text>
</g>
<!-- 1&#45;&gt;0 -->
<g id="edge1" class="edge">
<title>1&#45;&gt;0</title>
<path fill="none" stroke="grey" stroke-width="2" d="M92.14,-71.7C96.63,-63.64 102.06,-53.89 107.02,-44.98"/>
<polygon fill="grey" stroke="grey" stroke-width="2" points="110.16,-46.54 111.97,-36.1 104.05,-43.14 110.16,-46.54"/>
</g>
<!-- 2 -->
<g id="node3" class="node">
<title>2</title>
<path fill="none" stroke="#afd856" stroke-width="2" d="M109,-180C109,-180 12,-180 12,-180 6,-180 0,-174 0,-168 0,-168 0,-156 0,-156 0,-150 6,-144 12,-144 12,-144 109,-144 109,-144 115,-144 121,-150 121,-156 121,-156 121,-168 121,-168 121,-174 115,-180 109,-180"/>
<text text-anchor="middle" x="60.5" y="-159.5" font-family="sans" font-size="10.00">aggregate_checksum</text>
</g>
<!-- 2&#45;&gt;1 -->
<g id="edge3" class="edge">
<title>2&#45;&gt;1</title>
<path fill="none" stroke="grey" stroke-width="2" d="M65.94,-143.7C68.39,-135.9 71.34,-126.51 74.07,-117.83"/>
<polygon fill="grey" stroke="grey" stroke-width="2" points="77.46,-118.69 77.12,-108.1 70.79,-116.59 77.46,-118.69"/>
</g>
<!-- 3 -->
<g id="node4" class="node">
<title>3</title>
<path fill="none" stroke="#56d8a9" stroke-width="2" d="M143.5,-252C143.5,-252 101.5,-252 101.5,-252 95.5,-252 89.5,-246 89.5,-240 89.5,-240 89.5,-228 89.5,-228 89.5,-222 95.5,-216 101.5,-216 101.5,-216 143.5,-216 143.5,-216 149.5,-216 155.5,-222 155.5,-228 155.5,-228 155.5,-240 155.5,-240 155.5,-246 149.5,-252 143.5,-252"/>
<text text-anchor="middle" x="122.5" y="-231.5" font-family="sans" font-size="10.00">checksum</text>
</g>
<!-- 3&#45;&gt;2 -->
<g id="edge4" class="edge">
<title>3&#45;&gt;2</title>
<path fill="none" stroke="grey" stroke-width="2" d="M107.17,-215.7C99.74,-207.3 90.68,-197.07 82.52,-187.86"/>
<polygon fill="grey" stroke="grey" stroke-width="2" points="84.9,-185.27 75.65,-180.1 79.66,-189.91 84.9,-185.27"/>
</g>
<!-- 5 -->
<g id="node6" class="node">
<title>5</title>
<path fill="none" stroke="#59d856" stroke-width="2" d="M216,-180C216,-180 151,-180 151,-180 145,-180 139,-174 139,-168 139,-168 139,-156 139,-156 139,-150 145,-144 151,-144 151,-144 216,-144 216,-144 222,-144 228,-150 228,-156 228,-156 228,-168 228,-168 228,-174 222,-180 216,-180"/>
<text text-anchor="middle" x="183.5" y="-159.5" font-family="sans" font-size="10.00">ingest_dataset</text>
</g>
<!-- 3&#45;&gt;5 -->
<g id="edge7" class="edge">
<title>3&#45;&gt;5</title>
<path fill="none" stroke="grey" stroke-width="2" d="M137.58,-215.7C144.89,-207.3 153.81,-197.07 161.84,-187.86"/>
<polygon fill="grey" stroke="grey" stroke-width="2" points="164.66,-189.94 168.59,-180.1 159.39,-185.34 164.66,-189.94"/>
</g>
<!-- 4 -->
<g id="node5" class="node">
<title>4</title>
<path fill="none" stroke="#56a9d8" stroke-width="2" d="M200,-324C200,-324 105,-324 105,-324 99,-324 93,-318 93,-312 93,-312 93,-300 93,-300 93,-294 99,-288 105,-288 105,-288 200,-288 200,-288 206,-288 212,-294 212,-300 212,-300 212,-312 212,-312 212,-318 206,-324 200,-324"/>
<text text-anchor="middle" x="152.5" y="-309" font-family="sans" font-size="10.00">harmonize_sumstats</text>
<text text-anchor="middle" x="152.5" y="-298" font-family="sans" font-size="10.00">dataid: ukb&#45;b&#45;9696</text>
</g>
<!-- 4&#45;&gt;3 -->
<g id="edge5" class="edge">
<title>4&#45;&gt;3</title>
<path fill="none" stroke="grey" stroke-width="2" d="M145.08,-287.7C141.71,-279.81 137.63,-270.3 133.88,-261.55"/>
<polygon fill="grey" stroke="grey" stroke-width="2" points="136.99,-259.92 129.83,-252.1 130.55,-262.67 136.99,-259.92"/>
</g>
<!-- 4&#45;&gt;5 -->
<g id="edge6" class="edge">
<title>4&#45;&gt;5</title>
<path fill="none" stroke="grey" stroke-width="2" d="M156.44,-287.83C158.81,-277.46 161.87,-263.98 164.5,-252 169.05,-231.3 174.05,-207.85 177.78,-190.22"/>
<polygon fill="grey" stroke="grey" stroke-width="2" points="181.28,-190.58 179.92,-180.08 174.43,-189.14 181.28,-190.58"/>
</g>
<!-- 5&#45;&gt;0 -->
<g id="edge2" class="edge">
<title>5&#45;&gt;0</title>
<path fill="none" stroke="grey" stroke-width="2" d="M176.02,-143.87C165.36,-119.46 145.7,-74.43 133.13,-45.64"/>
<polygon fill="grey" stroke="grey" stroke-width="2" points="136.21,-43.95 129.01,-36.19 129.8,-46.75 136.21,-43.95"/>
</g>
</g>
</svg>
