<?xml version="1.0" encoding="UTF-8" standalone="no"?>
<!DOCTYPE svg PUBLIC "-//W3C//DTD SVG 1.1//EN"
 "http://www.w3.org/Graphics/SVG/1.1/DTD/svg11.dtd">
<!-- Generated by graphviz version 2.40.1 (0)
 -->
<!-- Title: snakemake_dag Pages: 1 -->
<svg width="1690pt" height="188pt"
 viewBox="0.00 0.00 1689.50 188.00" xmlns="http://www.w3.org/2000/svg" xmlns:xlink="http://www.w3.org/1999/xlink">
<g id="graph0" class="graph" transform="scale(1 1) rotate(0) translate(4 184)">
<title>snakemake_dag</title>
<polygon fill="#ffffff" stroke="transparent" points="-4,4 -4,-184 1685.5,-184 1685.5,4 -4,4"/>
<!-- 0 -->
<g id="node1" class="node">
<title>0</title>
<path fill="none" stroke="#56a9d8" stroke-width="2" d="M879,-36C879,-36 849,-36 849,-36 843,-36 837,-30 837,-24 837,-24 837,-12 837,-12 837,-6 843,0 849,0 849,0 879,0 879,0 885,0 891,-6 891,-12 891,-12 891,-24 891,-24 891,-30 885,-36 879,-36"/>
<text text-anchor="middle" x="864" y="-15.5" font-family="sans" font-size="10.00" fill="#000000">all</text>
</g>
<!-- 1 -->
<g id="node2" class="node">
<title>1</title>
<path fill="none" stroke="#d85656" stroke-width="2" d="M845.5,-108C845.5,-108 770.5,-108 770.5,-108 764.5,-108 758.5,-102 758.5,-96 758.5,-96 758.5,-84 758.5,-84 758.5,-78 764.5,-72 770.5,-72 770.5,-72 845.5,-72 845.5,-72 851.5,-72 857.5,-78 857.5,-84 857.5,-84 857.5,-96 857.5,-96 857.5,-102 851.5,-108 845.5,-108"/>
<text text-anchor="middle" x="808" y="-87.5" font-family="sans" font-size="10.00" fill="#000000">ingest_metadata</text>
</g>
<!-- 1&#45;&gt;0 -->
<g id="edge1" class="edge">
<title>1&#45;&gt;0</title>
<path fill="none" stroke="#c0c0c0" stroke-width="2" d="M822.1312,-71.8314C828.5811,-63.5386 836.3445,-53.557 843.4252,-44.4533"/>
<polygon fill="#c0c0c0" stroke="#c0c0c0" stroke-width="2" points="846.3019,-46.4556 849.6786,-36.4133 840.7764,-42.158 846.3019,-46.4556"/>
</g>
<!-- 2 -->
<g id="node3" class="node">
<title>2</title>
<path fill="none" stroke="#56d8a9" stroke-width="2" stroke-dasharray="5,2" d="M178,-180C178,-180 12,-180 12,-180 6,-180 0,-174 0,-168 0,-168 0,-156 0,-156 0,-150 6,-144 12,-144 12,-144 178,-144 178,-144 184,-144 190,-150 190,-156 190,-156 190,-168 190,-168 190,-174 184,-180 178,-180"/>
<text text-anchor="middle" x="95" y="-165" font-family="sans" font-size="10.00" fill="#000000">harmonize_sumstats</text>
<text text-anchor="middle" x="95" y="-154" font-family="sans" font-size="10.00" fill="#000000">dataid: ukb&#45;d&#45;XIII_MUSCULOSKELET</text>
</g>
<!-- 2&#45;&gt;1 -->
<g id="edge11" class="edge">
<title>2&#45;&gt;1</title>
<path fill="none" stroke="#c0c0c0" stroke-width="2" d="M190.1571,-145.1265C193.136,-144.7276 196.0892,-144.3506 199,-144 431.6436,-115.9818 492.9991,-140.9182 725,-108 732.5958,-106.9222 740.5326,-105.539 748.358,-104.019"/>
<polygon fill="#c0c0c0" stroke="#c0c0c0" stroke-width="2" points="749.0689,-107.4462 758.1766,-102.0333 747.6812,-100.5851 749.0689,-107.4462"/>
</g>
<!-- 11 -->
<g id="node12" class="node">
<title>11</title>
<path fill="none" stroke="#d8ac56" stroke-width="2" d="M216.5,-108C216.5,-108 151.5,-108 151.5,-108 145.5,-108 139.5,-102 139.5,-96 139.5,-96 139.5,-84 139.5,-84 139.5,-78 145.5,-72 151.5,-72 151.5,-72 216.5,-72 216.5,-72 222.5,-72 228.5,-78 228.5,-84 228.5,-84 228.5,-96 228.5,-96 228.5,-102 222.5,-108 216.5,-108"/>
<text text-anchor="middle" x="184" y="-87.5" font-family="sans" font-size="10.00" fill="#000000">ingest_dataset</text>
</g>
<!-- 2&#45;&gt;11 -->
<g id="edge20" class="edge">
<title>2&#45;&gt;11</title>
<path fill="none" stroke="#c0c0c0" stroke-width="2" d="M117.4585,-143.8314C128.4205,-134.9632 141.7699,-124.1637 153.6265,-114.5718"/>
<polygon fill="#c0c0c0" stroke="#c0c0c0" stroke-width="2" points="155.9755,-117.1734 161.5487,-108.1628 151.5729,-111.7313 155.9755,-117.1734"/>
</g>
<!-- 3 -->
<g id="node4" class="node">
<title>3</title>
<path fill="none" stroke="#56d8a9" stroke-width="2" stroke-dasharray="5,2" d="M381.5,-180C381.5,-180 220.5,-180 220.5,-180 214.5,-180 208.5,-174 208.5,-168 208.5,-168 208.5,-156 208.5,-156 208.5,-150 214.5,-144 220.5,-144 220.5,-144 381.5,-144 381.5,-144 387.5,-144 393.5,-150 393.5,-156 393.5,-156 393.5,-168 393.5,-168 393.5,-174 387.5,-180 381.5,-180"/>
<text text-anchor="middle" x="301" y="-165" font-family="sans" font-size="10.00" fill="#000000">harmonize_sumstats</text>
<text text-anchor="middle" x="301" y="-154" font-family="sans" font-size="10.00" fill="#000000">dataid: ukb&#45;d&#45;XII_SKIN_SUBCUTAN</text>
</g>
<!-- 3&#45;&gt;1 -->
<g id="edge12" class="edge">
<title>3&#45;&gt;1</title>
<path fill="none" stroke="#c0c0c0" stroke-width="2" d="M393.6998,-145.2366C396.4961,-144.8087 399.2677,-144.3953 402,-144 544.956,-123.3173 582.4533,-131.3375 725,-108 732.571,-106.7605 740.4932,-105.2812 748.3109,-103.711"/>
<polygon fill="#c0c0c0" stroke="#c0c0c0" stroke-width="2" points="749.038,-107.1348 758.1233,-101.6844 747.6221,-100.2794 749.038,-107.1348"/>
</g>
<!-- 12 -->
<g id="node13" class="node">
<title>12</title>
<path fill="none" stroke="#d8ac56" stroke-width="2" d="M412.5,-108C412.5,-108 347.5,-108 347.5,-108 341.5,-108 335.5,-102 335.5,-96 335.5,-96 335.5,-84 335.5,-84 335.5,-78 341.5,-72 347.5,-72 347.5,-72 412.5,-72 412.5,-72 418.5,-72 424.5,-78 424.5,-84 424.5,-84 424.5,-96 424.5,-96 424.5,-102 418.5,-108 412.5,-108"/>
<text text-anchor="middle" x="380" y="-87.5" font-family="sans" font-size="10.00" fill="#000000">ingest_dataset</text>
</g>
<!-- 3&#45;&gt;12 -->
<g id="edge21" class="edge">
<title>3&#45;&gt;12</title>
<path fill="none" stroke="#c0c0c0" stroke-width="2" d="M320.935,-143.8314C330.4783,-135.1337 342.0599,-124.5783 352.4306,-115.1265"/>
<polygon fill="#c0c0c0" stroke="#c0c0c0" stroke-width="2" points="355.038,-117.4857 360.0713,-108.1628 350.3228,-112.3121 355.038,-117.4857"/>
</g>
<!-- 4 -->
<g id="node5" class="node">
<title>4</title>
<path fill="none" stroke="#56d8a9" stroke-width="2" stroke-dasharray="5,2" d="M550.5,-180C550.5,-180 423.5,-180 423.5,-180 417.5,-180 411.5,-174 411.5,-168 411.5,-168 411.5,-156 411.5,-156 411.5,-150 417.5,-144 423.5,-144 423.5,-144 550.5,-144 550.5,-144 556.5,-144 562.5,-150 562.5,-156 562.5,-156 562.5,-168 562.5,-168 562.5,-174 556.5,-180 550.5,-180"/>
<text text-anchor="middle" x="487" y="-165" font-family="sans" font-size="10.00" fill="#000000">harmonize_sumstats</text>
<text text-anchor="middle" x="487" y="-154" font-family="sans" font-size="10.00" fill="#000000">dataid: ukb&#45;d&#45;XI_DIGESTIVE</text>
</g>
<!-- 4&#45;&gt;1 -->
<g id="edge13" class="edge">
<title>4&#45;&gt;1</title>
<path fill="none" stroke="#c0c0c0" stroke-width="2" d="M562.666,-145.0282C619.4331,-132.2954 696.0693,-115.106 748.493,-103.3474"/>
<polygon fill="#c0c0c0" stroke="#c0c0c0" stroke-width="2" points="749.3239,-106.748 758.3154,-101.1442 747.7918,-99.9177 749.3239,-106.748"/>
</g>
<!-- 13 -->
<g id="node14" class="node">
<title>13</title>
<path fill="none" stroke="#d8ac56" stroke-width="2" d="M558.5,-108C558.5,-108 493.5,-108 493.5,-108 487.5,-108 481.5,-102 481.5,-96 481.5,-96 481.5,-84 481.5,-84 481.5,-78 487.5,-72 493.5,-72 493.5,-72 558.5,-72 558.5,-72 564.5,-72 570.5,-78 570.5,-84 570.5,-84 570.5,-96 570.5,-96 570.5,-102 564.5,-108 558.5,-108"/>
<text text-anchor="middle" x="526" y="-87.5" font-family="sans" font-size="10.00" fill="#000000">ingest_dataset</text>
</g>
<!-- 4&#45;&gt;13 -->
<g id="edge22" class="edge">
<title>4&#45;&gt;13</title>
<path fill="none" stroke="#c0c0c0" stroke-width="2" d="M496.8413,-143.8314C501.1957,-135.7925 506.4098,-126.1666 511.2169,-117.2918"/>
<polygon fill="#c0c0c0" stroke="#c0c0c0" stroke-width="2" points="514.3408,-118.8732 516.0261,-108.4133 508.1857,-115.5392 514.3408,-118.8732"/>
</g>
<!-- 5 -->
<g id="node6" class="node">
<title>5</title>
<path fill="none" stroke="#56d8a9" stroke-width="2" stroke-dasharray="5,2" d="M751.5,-180C751.5,-180 592.5,-180 592.5,-180 586.5,-180 580.5,-174 580.5,-168 580.5,-168 580.5,-156 580.5,-156 580.5,-150 586.5,-144 592.5,-144 592.5,-144 751.5,-144 751.5,-144 757.5,-144 763.5,-150 763.5,-156 763.5,-156 763.5,-168 763.5,-168 763.5,-174 757.5,-180 751.5,-180"/>
<text text-anchor="middle" x="672" y="-165" font-family="sans" font-size="10.00" fill="#000000">harmonize_sumstats</text>
<text text-anchor="middle" x="672" y="-154" font-family="sans" font-size="10.00" fill="#000000">dataid: ukb&#45;d&#45;XVIII_MISCFINDINGS</text>
</g>
<!-- 5&#45;&gt;1 -->
<g id="edge14" class="edge">
<title>5&#45;&gt;1</title>
<path fill="none" stroke="#c0c0c0" stroke-width="2" d="M706.3185,-143.8314C724.0359,-134.4516 745.8345,-122.9112 764.6984,-112.9244"/>
<polygon fill="#c0c0c0" stroke="#c0c0c0" stroke-width="2" points="766.4922,-115.935 773.6924,-108.1628 763.2169,-109.7485 766.4922,-115.935"/>
</g>
<!-- 14 -->
<g id="node15" class="node">
<title>14</title>
<path fill="none" stroke="#d8ac56" stroke-width="2" d="M704.5,-108C704.5,-108 639.5,-108 639.5,-108 633.5,-108 627.5,-102 627.5,-96 627.5,-96 627.5,-84 627.5,-84 627.5,-78 633.5,-72 639.5,-72 639.5,-72 704.5,-72 704.5,-72 710.5,-72 716.5,-78 716.5,-84 716.5,-84 716.5,-96 716.5,-96 716.5,-102 710.5,-108 704.5,-108"/>
<text text-anchor="middle" x="672" y="-87.5" font-family="sans" font-size="10.00" fill="#000000">ingest_dataset</text>
</g>
<!-- 5&#45;&gt;14 -->
<g id="edge23" class="edge">
<title>5&#45;&gt;14</title>
<path fill="none" stroke="#c0c0c0" stroke-width="2" d="M672,-143.8314C672,-136.131 672,-126.9743 672,-118.4166"/>
<polygon fill="#c0c0c0" stroke="#c0c0c0" stroke-width="2" points="675.5001,-118.4132 672,-108.4133 668.5001,-118.4133 675.5001,-118.4132"/>
</g>
<!-- 6 -->
<g id="node7" class="node">
<title>6</title>
<path fill="none" stroke="#56d8a9" stroke-width="2" stroke-dasharray="5,2" d="M1000,-180C1000,-180 794,-180 794,-180 788,-180 782,-174 782,-168 782,-168 782,-156 782,-156 782,-150 788,-144 794,-144 794,-144 1000,-144 1000,-144 1006,-144 1012,-150 1012,-156 1012,-156 1012,-168 1012,-168 1012,-174 1006,-180 1000,-180"/>
<text text-anchor="middle" x="897" y="-165" font-family="sans" font-size="10.00" fill="#000000">harmonize_sumstats</text>
<text text-anchor="middle" x="897" y="-154" font-family="sans" font-size="10.00" fill="#000000">dataid: ukb&#45;d&#45;XVII_MALFORMAT_ABNORMAL</text>
</g>
<!-- 6&#45;&gt;1 -->
<g id="edge15" class="edge">
<title>6&#45;&gt;1</title>
<path fill="none" stroke="#c0c0c0" stroke-width="2" d="M874.5415,-143.8314C863.5795,-134.9632 850.2301,-124.1637 838.3735,-114.5718"/>
<polygon fill="#c0c0c0" stroke="#c0c0c0" stroke-width="2" points="840.4271,-111.7313 830.4513,-108.1628 836.0245,-117.1734 840.4271,-111.7313"/>
</g>
<!-- 15 -->
<g id="node16" class="node">
<title>15</title>
<path fill="none" stroke="#d8ac56" stroke-width="2" d="M952.5,-108C952.5,-108 887.5,-108 887.5,-108 881.5,-108 875.5,-102 875.5,-96 875.5,-96 875.5,-84 875.5,-84 875.5,-78 881.5,-72 887.5,-72 887.5,-72 952.5,-72 952.5,-72 958.5,-72 964.5,-78 964.5,-84 964.5,-84 964.5,-96 964.5,-96 964.5,-102 958.5,-108 952.5,-108"/>
<text text-anchor="middle" x="920" y="-87.5" font-family="sans" font-size="10.00" fill="#000000">ingest_dataset</text>
</g>
<!-- 6&#45;&gt;15 -->
<g id="edge24" class="edge">
<title>6&#45;&gt;15</title>
<path fill="none" stroke="#c0c0c0" stroke-width="2" d="M902.8039,-143.8314C905.2908,-136.0463 908.2531,-126.7729 911.0125,-118.1347"/>
<polygon fill="#c0c0c0" stroke="#c0c0c0" stroke-width="2" points="914.409,-119.0041 914.118,-108.4133 907.7409,-116.874 914.409,-119.0041"/>
</g>
<!-- 7 -->
<g id="node8" class="node">
<title>7</title>
<path fill="none" stroke="#56d8a9" stroke-width="2" stroke-dasharray="5,2" d="M1216,-180C1216,-180 1042,-180 1042,-180 1036,-180 1030,-174 1030,-168 1030,-168 1030,-156 1030,-156 1030,-150 1036,-144 1042,-144 1042,-144 1216,-144 1216,-144 1222,-144 1228,-150 1228,-156 1228,-156 1228,-168 1228,-168 1228,-174 1222,-180 1216,-180"/>
<text text-anchor="middle" x="1129" y="-165" font-family="sans" font-size="10.00" fill="#000000">harmonize_sumstats</text>
<text text-anchor="middle" x="1129" y="-154" font-family="sans" font-size="10.00" fill="#000000">dataid: ukb&#45;d&#45;XV_PREGNANCY_BIRTH</text>
</g>
<!-- 7&#45;&gt;1 -->
<g id="edge16" class="edge">
<title>7&#45;&gt;1</title>
<path fill="none" stroke="#c0c0c0" stroke-width="2" d="M1029.8092,-144.0268C982.9362,-134.9597 926.0817,-123.1398 867.3986,-108.2542"/>
<polygon fill="#c0c0c0" stroke="#c0c0c0" stroke-width="2" points="868.1381,-104.8307 857.5823,-105.7396 866.401,-111.6117 868.1381,-104.8307"/>
</g>
<!-- 16 -->
<g id="node17" class="node">
<title>16</title>
<path fill="none" stroke="#d8ac56" stroke-width="2" d="M1121.5,-108C1121.5,-108 1056.5,-108 1056.5,-108 1050.5,-108 1044.5,-102 1044.5,-96 1044.5,-96 1044.5,-84 1044.5,-84 1044.5,-78 1050.5,-72 1056.5,-72 1056.5,-72 1121.5,-72 1121.5,-72 1127.5,-72 1133.5,-78 1133.5,-84 1133.5,-84 1133.5,-96 1133.5,-96 1133.5,-102 1127.5,-108 1121.5,-108"/>
<text text-anchor="middle" x="1089" y="-87.5" font-family="sans" font-size="10.00" fill="#000000">ingest_dataset</text>
</g>
<!-- 7&#45;&gt;16 -->
<g id="edge25" class="edge">
<title>7&#45;&gt;16</title>
<path fill="none" stroke="#c0c0c0" stroke-width="2" d="M1118.9063,-143.8314C1114.4403,-135.7925 1109.0925,-126.1666 1104.1621,-117.2918"/>
<polygon fill="#c0c0c0" stroke="#c0c0c0" stroke-width="2" points="1107.1456,-115.4551 1099.2296,-108.4133 1101.0265,-118.8546 1107.1456,-115.4551"/>
</g>
<!-- 8 -->
<g id="node9" class="node">
<title>8</title>
<path fill="none" stroke="#56d8a9" stroke-width="2" stroke-dasharray="5,2" d="M1395.5,-180C1395.5,-180 1258.5,-180 1258.5,-180 1252.5,-180 1246.5,-174 1246.5,-168 1246.5,-168 1246.5,-156 1246.5,-156 1246.5,-150 1252.5,-144 1258.5,-144 1258.5,-144 1395.5,-144 1395.5,-144 1401.5,-144 1407.5,-150 1407.5,-156 1407.5,-156 1407.5,-168 1407.5,-168 1407.5,-174 1401.5,-180 1395.5,-180"/>
<text text-anchor="middle" x="1327" y="-165" font-family="sans" font-size="10.00" fill="#000000">harmonize_sumstats</text>
<text text-anchor="middle" x="1327" y="-154" font-family="sans" font-size="10.00" fill="#000000">dataid: ukb&#45;d&#45;X_RESPIRATORY</text>
</g>
<!-- 8&#45;&gt;1 -->
<g id="edge17" class="edge">
<title>8&#45;&gt;1</title>
<path fill="none" stroke="#c0c0c0" stroke-width="2" d="M1246.1141,-145.4234C1243.0409,-144.9206 1239.9949,-144.4436 1237,-144 1076.3256,-120.1988 1030.1922,-139.9187 867.3726,-108.058"/>
<polygon fill="#c0c0c0" stroke="#c0c0c0" stroke-width="2" points="867.9927,-104.6128 857.5016,-106.0918 866.6252,-111.4779 867.9927,-104.6128"/>
</g>
<!-- 17 -->
<g id="node18" class="node">
<title>17</title>
<path fill="none" stroke="#d8ac56" stroke-width="2" d="M1305.5,-108C1305.5,-108 1240.5,-108 1240.5,-108 1234.5,-108 1228.5,-102 1228.5,-96 1228.5,-96 1228.5,-84 1228.5,-84 1228.5,-78 1234.5,-72 1240.5,-72 1240.5,-72 1305.5,-72 1305.5,-72 1311.5,-72 1317.5,-78 1317.5,-84 1317.5,-84 1317.5,-96 1317.5,-96 1317.5,-102 1311.5,-108 1305.5,-108"/>
<text text-anchor="middle" x="1273" y="-87.5" font-family="sans" font-size="10.00" fill="#000000">ingest_dataset</text>
</g>
<!-- 8&#45;&gt;17 -->
<g id="edge26" class="edge">
<title>8&#45;&gt;17</title>
<path fill="none" stroke="#c0c0c0" stroke-width="2" d="M1313.3735,-143.8314C1307.154,-135.5386 1299.6678,-125.557 1292.84,-116.4533"/>
<polygon fill="#c0c0c0" stroke="#c0c0c0" stroke-width="2" points="1295.61,-114.3133 1286.81,-108.4133 1290.01,-118.5133 1295.61,-114.3133"/>
</g>
<!-- 9 -->
<g id="node10" class="node">
<title>9</title>
<path fill="none" stroke="#56d8a9" stroke-width="2" stroke-dasharray="5,2" d="M1532.5,-180C1532.5,-180 1437.5,-180 1437.5,-180 1431.5,-180 1425.5,-174 1425.5,-168 1425.5,-168 1425.5,-156 1425.5,-156 1425.5,-150 1431.5,-144 1437.5,-144 1437.5,-144 1532.5,-144 1532.5,-144 1538.5,-144 1544.5,-150 1544.5,-156 1544.5,-156 1544.5,-168 1544.5,-168 1544.5,-174 1538.5,-180 1532.5,-180"/>
<text text-anchor="middle" x="1485" y="-165" font-family="sans" font-size="10.00" fill="#000000">harmonize_sumstats</text>
<text text-anchor="middle" x="1485" y="-154" font-family="sans" font-size="10.00" fill="#000000">dataid: ukb&#45;d&#45;Z01</text>
</g>
<!-- 9&#45;&gt;1 -->
<g id="edge18" class="edge">
<title>9&#45;&gt;1</title>
<path fill="none" stroke="#c0c0c0" stroke-width="2" d="M1425.3088,-145.6879C1422.172,-145.063 1419.0554,-144.4939 1416,-144 1177.4782,-105.441 1108.7437,-151.3249 867.9144,-108.1202"/>
<polygon fill="#c0c0c0" stroke="#c0c0c0" stroke-width="2" points="868.266,-104.6266 857.7996,-106.2718 867.0075,-111.5125 868.266,-104.6266"/>
</g>
<!-- 18 -->
<g id="node19" class="node">
<title>18</title>
<path fill="none" stroke="#d8ac56" stroke-width="2" d="M1476.5,-108C1476.5,-108 1411.5,-108 1411.5,-108 1405.5,-108 1399.5,-102 1399.5,-96 1399.5,-96 1399.5,-84 1399.5,-84 1399.5,-78 1405.5,-72 1411.5,-72 1411.5,-72 1476.5,-72 1476.5,-72 1482.5,-72 1488.5,-78 1488.5,-84 1488.5,-84 1488.5,-96 1488.5,-96 1488.5,-102 1482.5,-108 1476.5,-108"/>
<text text-anchor="middle" x="1444" y="-87.5" font-family="sans" font-size="10.00" fill="#000000">ingest_dataset</text>
</g>
<!-- 9&#45;&gt;18 -->
<g id="edge27" class="edge">
<title>9&#45;&gt;18</title>
<path fill="none" stroke="#c0c0c0" stroke-width="2" d="M1474.654,-143.8314C1470.0763,-135.7925 1464.5948,-126.1666 1459.5412,-117.2918"/>
<polygon fill="#c0c0c0" stroke="#c0c0c0" stroke-width="2" points="1462.4752,-115.3712 1454.4853,-108.4133 1456.3923,-118.8351 1462.4752,-115.3712"/>
</g>
<!-- 10 -->
<g id="node11" class="node">
<title>10</title>
<path fill="none" stroke="#56d8a9" stroke-width="2" stroke-dasharray="5,2" d="M1669.5,-180C1669.5,-180 1574.5,-180 1574.5,-180 1568.5,-180 1562.5,-174 1562.5,-168 1562.5,-168 1562.5,-156 1562.5,-156 1562.5,-150 1568.5,-144 1574.5,-144 1574.5,-144 1669.5,-144 1669.5,-144 1675.5,-144 1681.5,-150 1681.5,-156 1681.5,-156 1681.5,-168 1681.5,-168 1681.5,-174 1675.5,-180 1669.5,-180"/>
<text text-anchor="middle" x="1622" y="-165" font-family="sans" font-size="10.00" fill="#000000">harmonize_sumstats</text>
<text text-anchor="middle" x="1622" y="-154" font-family="sans" font-size="10.00" fill="#000000">dataid: ukb&#45;d&#45;Z42</text>
</g>
<!-- 10&#45;&gt;1 -->
<g id="edge19" class="edge">
<title>10&#45;&gt;1</title>
<path fill="none" stroke="#c0c0c0" stroke-width="2" d="M1562.3165,-145.6394C1559.1777,-145.0272 1556.0585,-144.474 1553,-144 1254.101,-97.6732 1168.8217,-160.3527 867.679,-108.0588"/>
<polygon fill="#c0c0c0" stroke="#c0c0c0" stroke-width="2" points="868.248,-104.6052 857.7919,-106.3143 867.0316,-111.4987 868.248,-104.6052"/>
</g>
<!-- 19 -->
<g id="node20" class="node">
<title>19</title>
<path fill="none" stroke="#d8ac56" stroke-width="2" d="M1630.5,-108C1630.5,-108 1565.5,-108 1565.5,-108 1559.5,-108 1553.5,-102 1553.5,-96 1553.5,-96 1553.5,-84 1553.5,-84 1553.5,-78 1559.5,-72 1565.5,-72 1565.5,-72 1630.5,-72 1630.5,-72 1636.5,-72 1642.5,-78 1642.5,-84 1642.5,-84 1642.5,-96 1642.5,-96 1642.5,-102 1636.5,-108 1630.5,-108"/>
<text text-anchor="middle" x="1598" y="-87.5" font-family="sans" font-size="10.00" fill="#000000">ingest_dataset</text>
</g>
<!-- 10&#45;&gt;19 -->
<g id="edge28" class="edge">
<title>10&#45;&gt;19</title>
<path fill="none" stroke="#c0c0c0" stroke-width="2" d="M1615.9438,-143.8314C1613.3488,-136.0463 1610.2576,-126.7729 1607.3782,-118.1347"/>
<polygon fill="#c0c0c0" stroke="#c0c0c0" stroke-width="2" points="1610.6205,-116.7933 1604.1378,-108.4133 1603.9797,-119.0069 1610.6205,-116.7933"/>
</g>
<!-- 11&#45;&gt;0 -->
<g id="edge2" class="edge">
<title>11&#45;&gt;0</title>
<path fill="none" stroke="#c0c0c0" stroke-width="2" d="M228.7324,-84.0266C256.6725,-80.3708 293.4074,-75.7008 326,-72 513.9974,-50.6535 739.4631,-29.4465 826.8597,-21.3918"/>
<polygon fill="#c0c0c0" stroke="#c0c0c0" stroke-width="2" points="827.1841,-24.8768 836.8215,-20.4756 826.543,-17.9062 827.1841,-24.8768"/>
</g>
<!-- 12&#45;&gt;0 -->
<g id="edge3" class="edge">
<title>12&#45;&gt;0</title>
<path fill="none" stroke="#c0c0c0" stroke-width="2" d="M424.83,-80.7036C439.7978,-77.7401 456.5883,-74.5671 472,-72 601.8784,-50.3664 757.0054,-30.8581 826.776,-22.4187"/>
<polygon fill="#c0c0c0" stroke="#c0c0c0" stroke-width="2" points="827.3214,-25.8784 836.8312,-21.2077 826.4844,-18.9286 827.3214,-25.8784"/>
</g>
<!-- 13&#45;&gt;0 -->
<g id="edge4" class="edge">
<title>13&#45;&gt;0</title>
<path fill="none" stroke="#c0c0c0" stroke-width="2" d="M570.5352,-80.5132C637.779,-66.1891 764.0156,-39.2985 826.7078,-25.9439"/>
<polygon fill="#c0c0c0" stroke="#c0c0c0" stroke-width="2" points="827.5147,-29.3506 836.5661,-23.8439 826.0563,-22.5042 827.5147,-29.3506"/>
</g>
<!-- 14&#45;&gt;0 -->
<g id="edge5" class="edge">
<title>14&#45;&gt;0</title>
<path fill="none" stroke="#c0c0c0" stroke-width="2" d="M716.5313,-73.3008C750.118,-60.7057 795.6381,-43.6357 827.181,-31.8071"/>
<polygon fill="#c0c0c0" stroke="#c0c0c0" stroke-width="2" points="828.764,-34.9516 836.8983,-28.1631 826.3061,-28.3973 828.764,-34.9516"/>
</g>
<!-- 15&#45;&gt;0 -->
<g id="edge6" class="edge">
<title>15&#45;&gt;0</title>
<path fill="none" stroke="#c0c0c0" stroke-width="2" d="M905.8688,-71.8314C899.4189,-63.5386 891.6555,-53.557 884.5748,-44.4533"/>
<polygon fill="#c0c0c0" stroke="#c0c0c0" stroke-width="2" points="887.2236,-42.158 878.3214,-36.4133 881.6981,-46.4556 887.2236,-42.158"/>
</g>
<!-- 16&#45;&gt;0 -->
<g id="edge7" class="edge">
<title>16&#45;&gt;0</title>
<path fill="none" stroke="#c0c0c0" stroke-width="2" d="M1044.2782,-75.689C1002.3075,-62.2584 940.2712,-42.4068 901.01,-29.8432"/>
<polygon fill="#c0c0c0" stroke="#c0c0c0" stroke-width="2" points="901.8941,-26.4513 891.3031,-26.737 899.7606,-33.1183 901.8941,-26.4513"/>
</g>
<!-- 17&#45;&gt;0 -->
<g id="edge8" class="edge">
<title>17&#45;&gt;0</title>
<path fill="none" stroke="#c0c0c0" stroke-width="2" d="M1228.4512,-82.1577C1147.1809,-67.8509 976.3058,-37.7702 900.9911,-24.5119"/>
<polygon fill="#c0c0c0" stroke="#c0c0c0" stroke-width="2" points="901.4727,-21.0429 891.0173,-22.7561 900.259,-27.9369 901.4727,-21.0429"/>
</g>
<!-- 18&#45;&gt;0 -->
<g id="edge9" class="edge">
<title>18&#45;&gt;0</title>
<path fill="none" stroke="#c0c0c0" stroke-width="2" d="M1399.2268,-82.7926C1377.1985,-79.343 1350.2345,-75.2637 1326,-72 1168.5404,-50.7948 980.227,-30.2884 901.4885,-21.9316"/>
<polygon fill="#c0c0c0" stroke="#c0c0c0" stroke-width="2" points="901.4328,-18.4063 891.12,-20.8343 900.6961,-25.3674 901.4328,-18.4063"/>
</g>
<!-- 19&#45;&gt;0 -->
<g id="edge10" class="edge">
<title>19&#45;&gt;0</title>
<path fill="none" stroke="#c0c0c0" stroke-width="2" d="M1553.3883,-81.145C1535.8648,-77.9042 1515.542,-74.438 1497,-72 1271.7376,-42.3816 999.1385,-25.4648 901.2371,-19.986"/>
<polygon fill="#c0c0c0" stroke="#c0c0c0" stroke-width="2" points="901.4201,-16.4908 891.2418,-19.4326 901.033,-23.4801 901.4201,-16.4908"/>
</g>
</g>
</svg>
